<svg width="108" height="61" viewBox="0 0 108 61" fill="none" xmlns="http://www.w3.org/2000/svg">
<g clip-path="url(#clip0_170_6902)">
<path d="M12.1667 52.8239C12.0587 52.7081 12.0051 52.5517 12.0051 52.3537V51.7246H8.81497C8.62269 51.7246 8.47521 51.673 8.37212 51.5694C8.26908 51.4658 8.21777 51.3174 8.21777 51.124V47.3425C8.21777 47.1494 8.27506 46.9938 8.38982 46.8763C8.50457 46.7583 8.65765 46.6997 8.84997 46.6997C9.04198 46.6997 9.19537 46.7573 9.31056 46.8728C9.42492 46.9882 9.48252 47.1448 9.48252 47.3425V50.7068H11.2183V47.3425C11.2183 47.1494 11.2752 46.9938 11.3903 46.8763C11.5051 46.7583 11.6581 46.6997 11.8504 46.6997C12.0425 46.6997 12.1958 46.7573 12.3103 46.8728C12.4254 46.9882 12.4826 47.1448 12.4826 47.3425V50.7068H12.588C12.7804 50.7068 12.9288 50.7591 13.034 50.8624C13.1398 50.9664 13.1924 51.1147 13.1924 51.3079V52.3537C13.1924 52.5468 13.1387 52.7025 13.0309 52.8202C12.9232 52.938 12.7777 52.9969 12.5952 52.9969C12.4173 52.9969 12.2743 52.9393 12.1667 52.8239H12.1667Z" fill="#148D42"/>
<path d="M14.3166 51.5692C14.2135 51.4659 14.1619 51.3172 14.1619 51.1238V47.3424C14.1619 47.1493 14.2135 47.0009 14.3166 46.8976C14.4192 46.7936 14.5671 46.742 14.7594 46.742H17.1904C17.3915 46.742 17.544 46.7844 17.6474 46.8694C17.75 46.9542 17.8017 47.0766 17.8017 47.2365C17.8017 47.5757 17.5979 47.7454 17.1904 47.7454H15.4197V48.6926H17.0497C17.4577 48.6926 17.6613 48.86 17.6613 49.1942C17.6613 49.3549 17.6093 49.4772 17.5067 49.5618C17.4033 49.6466 17.2512 49.6891 17.0497 49.6891H15.4197V50.7212H17.1904C17.5979 50.7212 17.8017 50.8906 17.8017 51.2301C17.8017 51.3903 17.75 51.5127 17.6474 51.5976C17.544 51.6825 17.3915 51.7249 17.1904 51.7249H14.7594C14.5671 51.7249 14.4192 51.673 14.3166 51.5693V51.5692Z" fill="#148D42"/>
<path d="M23.0885 46.8799C23.2037 46.9953 23.2606 47.1493 23.2606 47.3425V51.1238C23.2606 51.3174 23.2037 51.4729 23.0885 51.5904C22.9738 51.7084 22.8207 51.767 22.6287 51.767C22.4364 51.767 22.283 51.7098 22.1685 51.5939C22.0534 51.4789 21.9961 51.3219 21.9961 51.1238V49.7105H19.9727V51.1238C19.9727 51.3174 19.9151 51.4729 19.8003 51.5904C19.6855 51.7084 19.5321 51.767 19.3401 51.767C19.1478 51.767 18.9944 51.7098 18.88 51.5939C18.7648 51.4789 18.7075 51.3219 18.7075 51.1238V47.3425C18.7075 47.1493 18.7648 46.9954 18.88 46.8799C18.9944 46.7641 19.1478 46.7068 19.3401 46.7068C19.5321 46.7068 19.6854 46.7641 19.8003 46.8799C19.9151 46.9953 19.9727 47.1493 19.9727 47.3425V48.6784H21.9961V47.3425C21.9961 47.1493 22.0534 46.9954 22.1685 46.8799C22.2829 46.7641 22.4364 46.7068 22.6287 46.7068C22.8207 46.7068 22.9737 46.7641 23.0885 46.8799Z" fill="#148D42"/>
<path d="M25.8081 51.5869C25.6887 51.4715 25.6288 51.3175 25.6288 51.124V47.795H24.6382C24.4318 47.795 24.2784 47.7515 24.178 47.6641C24.0769 47.5772 24.0269 47.444 24.0269 47.2647C24.0269 47.0857 24.0769 46.9541 24.178 46.8693C24.2784 46.7843 24.4318 46.7419 24.6382 46.7419H27.9268C28.1325 46.7419 28.2859 46.7843 28.3869 46.8693C28.4873 46.9541 28.5381 47.0857 28.5381 47.2647C28.5381 47.444 28.4873 47.5772 28.3869 47.6641C28.2859 47.7516 28.1325 47.795 27.9268 47.795H26.9357V51.124C26.9357 51.3175 26.8763 51.4714 26.7566 51.5869C26.6372 51.7027 26.4793 51.76 26.2823 51.76C26.0858 51.76 25.9275 51.7027 25.8081 51.5869H25.8081Z" fill="#148D42"/>
<path d="M32.0543 48.7986C32.1692 48.6995 32.2264 48.5466 32.2264 48.3393C32.2264 47.9291 31.9922 47.7241 31.5238 47.7241H30.5963V48.947H31.5238C31.7627 48.947 31.9393 48.8976 32.0543 48.7986V48.7986ZM29.4755 51.5939C29.3608 51.4785 29.3035 51.3218 29.3035 51.1238V47.3424C29.3035 47.1493 29.3548 47.0009 29.4582 46.8976C29.5609 46.7937 29.7084 46.742 29.9007 46.742H31.6995C32.2476 46.742 32.6738 46.8822 32.9783 47.1625C33.2828 47.4428 33.4349 47.8326 33.4349 48.332C33.4349 48.8268 33.2815 49.2157 32.9746 49.4982C32.6679 49.7809 32.2427 49.9223 31.6995 49.9223H30.5963V51.1237C30.5963 51.3218 30.5374 51.4784 30.4207 51.5939C30.3033 51.7097 30.144 51.767 29.9429 51.767C29.746 51.767 29.5903 51.7097 29.4755 51.5939V51.5939Z" fill="#148D42"/>
<path d="M45.0866 51.4774C44.7141 51.2701 44.426 50.9734 44.2222 50.5868C44.0185 50.2006 43.9167 49.7482 43.9167 49.2297C43.9167 48.7162 44.0185 48.2662 44.2222 47.8795C44.426 47.4936 44.7141 47.1966 45.0866 46.9892C45.4592 46.782 45.8935 46.6783 46.39 46.6783C46.985 46.6783 47.5072 46.8363 47.9569 47.152C48.0368 47.2084 48.0937 47.2695 48.129 47.3353C48.164 47.4015 48.1816 47.4864 48.1816 47.59C48.1816 47.7361 48.1407 47.8598 48.059 47.9611C47.9768 48.0624 47.8771 48.1128 47.7604 48.1128C47.69 48.1128 47.627 48.1022 47.5707 48.0812C47.5144 48.0598 47.4487 48.0259 47.3738 47.9785C47.2096 47.8794 47.0552 47.809 46.9101 47.7666C46.7648 47.7242 46.615 47.7028 46.4603 47.7028C46.0433 47.7028 45.7333 47.8292 45.5295 48.0812C45.3254 48.3331 45.2237 48.7162 45.2237 49.2296C45.2237 49.7481 45.3254 50.1334 45.5295 50.3853C45.7333 50.6374 46.0433 50.7634 46.4603 50.7634C46.6009 50.7634 46.7367 50.7414 46.8678 50.6962C46.9989 50.6515 47.1674 50.5821 47.3738 50.4877C47.4723 50.436 47.5448 50.4008 47.5916 50.3817C47.6384 50.363 47.6946 50.3534 47.7604 50.3534C47.8771 50.3534 47.9769 50.4042 48.059 50.5054C48.1408 50.6068 48.1816 50.7305 48.1816 50.8765C48.1816 50.9755 48.1639 51.0591 48.129 51.1275C48.0937 51.196 48.0368 51.2582 47.9569 51.3146C47.5072 51.6305 46.985 51.7881 46.39 51.7881C45.8935 51.7881 45.4592 51.6848 45.0866 51.4772V51.4774Z" fill="#148D42"/>
<path d="M52.278 50.3924C52.489 50.1263 52.5944 49.7388 52.5944 49.2298C52.5944 48.7209 52.4877 48.3346 52.2745 48.0704C52.0612 47.8069 51.7695 47.6746 51.3996 47.6746C51.0248 47.6746 50.7321 47.8055 50.5214 48.0671C50.3105 48.3286 50.2052 48.7162 50.2052 49.2298C50.2052 49.7433 50.3105 50.1322 50.5214 50.396C50.732 50.6599 51.0248 50.7918 51.3996 50.7918C51.7744 50.7918 52.0672 50.6589 52.2781 50.3924L52.278 50.3924ZM50.0822 51.4739C49.7097 51.2643 49.4229 50.9676 49.2214 50.5832C49.0199 50.1993 48.9192 49.7483 48.9192 49.2298C48.9192 48.7116 49.0198 48.2606 49.2214 47.8764C49.4229 47.4924 49.7097 47.1966 50.0822 46.9894C50.4547 46.7818 50.894 46.6785 51.3996 46.6785C51.9056 46.6785 52.3448 46.7818 52.7174 46.9894C53.0892 47.1966 53.375 47.4925 53.5743 47.8764C53.7734 48.2606 53.8728 48.7117 53.8728 49.2298C53.8728 49.7483 53.7721 50.1993 53.5706 50.5832C53.3694 50.9676 53.0823 51.2643 52.7101 51.4739C52.3379 51.6838 51.901 51.7884 51.3996 51.7884C50.894 51.7884 50.4547 51.6837 50.0822 51.4739H50.0822Z" fill="#148D42"/>
<path d="M57.9343 47.7454H56.6342V47.7313C56.6342 48.3675 56.6002 48.9186 56.5325 49.3851C56.4645 49.8516 56.3507 50.2948 56.1917 50.7138H57.9343V47.7454ZM54.5263 52.824C54.4184 52.7083 54.3647 52.5516 54.3647 52.3539V51.3077C54.3647 51.1146 54.4161 50.9662 54.5195 50.8626C54.6222 50.759 54.7697 50.7069 54.962 50.7069H55.1308C55.2852 50.2879 55.3882 49.84 55.4398 49.3641C55.4912 48.8883 55.5171 48.358 55.5171 47.7737V47.3424C55.5171 47.1493 55.5687 47.0009 55.6717 46.8976C55.7744 46.7936 55.9223 46.742 56.1146 46.742H58.6018C58.7938 46.742 58.9413 46.7936 59.0444 46.8976C59.1474 47.0009 59.1987 47.1493 59.1987 47.3424V50.7069H59.304C59.4963 50.7069 59.6442 50.7589 59.7468 50.8626C59.8499 50.9662 59.9015 51.1145 59.9015 51.3077V52.3538C59.9015 52.547 59.848 52.7022 59.74 52.8204C59.6321 52.9378 59.4895 52.997 59.3112 52.997C59.1333 52.997 58.9904 52.9391 58.8825 52.8239C58.7748 52.7082 58.7209 52.5515 58.7209 52.3538V51.7248H55.5451V52.3538C55.5451 52.547 55.4912 52.7022 55.3836 52.8204C55.2757 52.9378 55.1331 52.997 54.9551 52.997C54.7769 52.997 54.634 52.9391 54.5263 52.8239V52.824Z" fill="#148D42"/>
<path d="M61.0257 51.5692C60.9227 51.4659 60.8711 51.3172 60.8711 51.1238V47.3424C60.8711 47.1493 60.9227 47.0009 61.0257 46.8976C61.1284 46.7936 61.2763 46.742 61.4686 46.742H63.8996C64.1008 46.742 64.2532 46.7844 64.3565 46.8694C64.4592 46.9542 64.5108 47.0766 64.5108 47.2365C64.5108 47.5757 64.3071 47.7454 63.8996 47.7454H62.129V48.6926H63.759C64.1668 48.6926 64.3706 48.86 64.3706 49.1942C64.3706 49.3549 64.3186 49.4772 64.2158 49.5618C64.1126 49.6466 63.9604 49.6891 63.759 49.6891H62.129V50.7212H63.8996C64.3071 50.7212 64.5108 50.8906 64.5108 51.2301C64.5108 51.3903 64.4592 51.5127 64.3565 51.5976C64.2532 51.6825 64.1008 51.7249 63.8996 51.7249H61.4686C61.2763 51.7249 61.1284 51.673 61.0257 51.5693V51.5692Z" fill="#148D42"/>
<path d="M66.7274 46.0105C66.458 45.8526 66.2765 45.6487 66.183 45.3993C66.1594 45.3377 66.1479 45.2742 66.1479 45.2085C66.1479 45.0903 66.1865 44.9949 66.2637 44.9219C66.3408 44.8491 66.4311 44.8123 66.5342 44.8123C66.609 44.8123 66.6794 44.8336 66.7451 44.8762C66.8105 44.9187 66.8619 44.9798 66.8995 45.0597C66.9838 45.2344 67.0937 45.3625 67.2298 45.445C67.3655 45.5272 67.5153 45.5687 67.6795 45.5687C67.8483 45.5687 68.0003 45.5261 68.1364 45.4417C68.2721 45.3568 68.3824 45.2294 68.4665 45.0597C68.5087 44.9798 68.5613 44.9186 68.6247 44.8762C68.6878 44.8336 68.7568 44.8123 68.8321 44.8123C68.9347 44.8123 69.0251 44.8491 69.1025 44.9218C69.1798 44.9949 69.2183 45.0879 69.2183 45.2012V45.2363C69.2183 45.2789 69.2065 45.3308 69.1833 45.3919C69.0989 45.6417 68.9197 45.8467 68.6457 46.0069C68.3715 46.1671 68.0494 46.2473 67.6795 46.2473C67.3142 46.2473 66.9967 46.1681 66.7274 46.0104L66.7274 46.0105ZM68.8426 46.7878C68.9525 46.729 69.1199 46.6998 69.3449 46.6998C69.537 46.6998 69.6844 46.7501 69.7872 46.8518C69.8904 46.9527 69.9418 47.1001 69.9418 47.2929V51.124C69.9418 51.3175 69.8846 51.4731 69.7698 51.5905C69.655 51.7083 69.5016 51.7671 69.31 51.7671C69.1176 51.7671 68.9643 51.7096 68.8495 51.5942C68.7346 51.4787 68.6774 51.322 68.6774 51.124V48.5937L66.9558 51.2016C66.8432 51.3622 66.7415 51.4835 66.6503 51.5658C66.5587 51.6484 66.4649 51.7027 66.369 51.7283C66.2729 51.7539 66.1548 51.7671 66.0141 51.7671C65.8218 51.7671 65.6743 51.7168 65.5716 51.6152C65.4682 51.5142 65.417 51.3667 65.417 51.1733V47.3425C65.417 47.1494 65.4742 46.9938 65.5893 46.8763C65.7037 46.7583 65.8572 46.6997 66.0495 46.6997C66.2415 46.6997 66.3945 46.7573 66.5097 46.8728C66.6244 46.9882 66.6817 47.1448 66.6817 47.3425V49.8659L68.5158 47.1097C68.6235 46.9541 68.7324 46.8468 68.8426 46.7878Z" fill="#148D42"/>
<path d="M72.236 51.4774C71.8635 51.2701 71.5754 50.9734 71.3716 50.5868C71.1679 50.2006 71.0662 49.7482 71.0662 49.2297C71.0662 48.7162 71.1679 48.2662 71.3716 47.8795C71.5754 47.4936 71.8635 47.1966 72.236 46.9892C72.6085 46.782 73.0429 46.6783 73.5394 46.6783C74.1342 46.6783 74.6566 46.8363 75.1063 47.152C75.1861 47.2084 75.243 47.2695 75.2783 47.3353C75.3133 47.4015 75.3309 47.4864 75.3309 47.59C75.3309 47.7361 75.29 47.8598 75.2083 47.9611C75.1262 48.0624 75.0265 48.1128 74.9098 48.1128C74.8394 48.1128 74.7763 48.1022 74.72 48.0812C74.6638 48.0598 74.5981 48.0259 74.5232 47.9785C74.359 47.8794 74.2046 47.809 74.0593 47.7666C73.9142 47.7242 73.7643 47.7028 73.6097 47.7028C73.1927 47.7028 72.8826 47.8292 72.6789 48.0812C72.4748 48.3331 72.3731 48.7162 72.3731 49.2296C72.3731 49.7481 72.4748 50.1334 72.6789 50.3853C72.8826 50.6374 73.1927 50.7634 73.6097 50.7634C73.7503 50.7634 73.8861 50.7414 74.0172 50.6962C74.1483 50.6515 74.3168 50.5821 74.5232 50.4877C74.6217 50.436 74.6942 50.4008 74.7409 50.3817C74.7878 50.363 74.8439 50.3534 74.9098 50.3534C75.0265 50.3534 75.1263 50.4042 75.2083 50.5054C75.2901 50.6068 75.3309 50.7305 75.3309 50.8765C75.3309 50.9755 75.3133 51.0591 75.2783 51.1275C75.2429 51.196 75.1861 51.2582 75.1063 51.3146C74.6566 51.6305 74.1342 51.7881 73.5394 51.7881C73.0429 51.7881 72.6085 51.6848 72.236 51.4772V51.4774Z" fill="#148D42"/>
<path d="M77.5341 51.5869C77.4148 51.4715 77.3549 51.3175 77.3549 51.124V47.795H76.3642C76.1579 47.795 76.0045 47.7515 75.9041 47.6641C75.803 47.5772 75.7529 47.444 75.7529 47.2647C75.7529 47.0857 75.803 46.9541 75.9041 46.8693C76.0045 46.7843 76.1579 46.7419 76.3642 46.7419H79.6528C79.8585 46.7419 80.0119 46.7843 80.113 46.8693C80.2134 46.9541 80.2642 47.0857 80.2642 47.2647C80.2642 47.444 80.2134 47.5772 80.113 47.6641C80.012 47.7516 79.8585 47.795 79.6528 47.795H78.6619V51.124C78.6619 51.3175 78.6023 51.4714 78.4826 51.5869C78.3632 51.7027 78.2052 51.76 78.0083 51.76C77.8118 51.76 77.6535 51.7027 77.5341 51.5869H77.5341Z" fill="#148D42"/>
<path d="M83.8855 50.6186C83.9954 50.5364 84.0507 50.4008 84.0507 50.2123C84.0507 50.0238 83.9954 49.8882 83.8855 49.8056C83.7752 49.7234 83.5915 49.682 83.3337 49.682H82.2868V50.7423H83.3337C83.5915 50.7423 83.7752 50.7011 83.8855 50.6186ZM82.2868 48.6996H83.2075C83.4509 48.6996 83.629 48.6621 83.7416 48.5865C83.8538 48.5114 83.91 48.391 83.91 48.2262C83.91 48.0518 83.8538 47.9248 83.7416 47.8442C83.629 47.7643 83.4509 47.7241 83.2075 47.7241H82.2868V48.6996V48.6996ZM85.0204 49.5866C85.1744 49.7965 85.2519 50.0544 85.2519 50.3606C85.2519 50.634 85.1806 50.8729 85.0377 51.0779C84.8948 51.2832 84.691 51.4421 84.4264 51.5552C84.1619 51.6681 83.8515 51.7247 83.4956 51.7247H81.6265C81.4342 51.7247 81.2867 51.673 81.1836 51.5694C81.0806 51.4658 81.0293 51.3175 81.0293 51.1239V47.3426C81.0293 47.1494 81.0806 47.0011 81.1836 46.8974C81.2867 46.7938 81.4342 46.7422 81.6265 46.7422H83.4254C83.9454 46.7422 84.3584 46.8587 84.6656 47.0919C84.9721 47.3248 85.1254 47.6394 85.1254 48.0351C85.1254 48.2897 85.0578 48.5147 84.922 48.7102C84.7859 48.9059 84.5962 49.0487 84.3528 49.1379C84.6431 49.2274 84.8657 49.3774 85.0204 49.5866L85.0204 49.5866Z" fill="#148D42"/>
<path d="M89.6893 46.7881C89.7991 46.7288 89.9669 46.6995 90.1917 46.6995C90.3835 46.6995 90.5312 46.7502 90.6342 46.8515C90.7372 46.9528 90.7885 47.0999 90.7885 47.293V51.1241C90.7885 51.3175 90.7316 51.4728 90.6164 51.5906C90.5017 51.7084 90.3486 51.7672 90.1566 51.7672C89.9643 51.7672 89.8109 51.7097 89.6961 51.5939C89.5813 51.4788 89.524 51.3218 89.524 51.1241V48.5935L87.8024 51.2017C87.6902 51.3619 87.5882 51.4833 87.4969 51.5656C87.4057 51.6481 87.3115 51.7025 87.2161 51.7284C87.1199 51.754 87.0015 51.7672 86.8612 51.7672C86.6689 51.7672 86.521 51.7165 86.4184 51.6153C86.3153 51.5139 86.2637 51.3668 86.2637 51.1734V47.3426C86.2637 47.1496 86.3209 46.9939 86.436 46.8765C86.5505 46.7583 86.7039 46.6995 86.8962 46.6995C87.0882 46.6995 87.2416 46.757 87.3564 46.8729C87.4712 46.9879 87.5288 47.1449 87.5288 47.3426V49.8657L89.3626 47.1098C89.4701 46.9541 89.5791 46.8469 89.6893 46.7881H89.6893Z" fill="#148D42"/>
<path d="M94.8642 47.7243H94.1616C93.8849 47.7243 93.6753 47.7821 93.5327 47.8972C93.3894 48.0131 93.3181 48.172 93.3181 48.3747C93.3181 48.5773 93.3802 48.7233 93.5046 48.8129C93.6285 48.9024 93.8336 48.9471 94.1194 48.9471H94.8641V47.7243H94.8642ZM95.0152 51.5942C94.9001 51.4787 94.8432 51.322 94.8432 51.124V49.9225H94.4707C94.1757 49.9225 93.9437 50.0686 93.775 50.3607L93.1565 51.4491C93.0394 51.6612 92.8684 51.7672 92.6436 51.7672C92.4795 51.7672 92.3333 51.7107 92.2045 51.5974C92.0756 51.4846 92.0112 51.3481 92.0112 51.1875C92.0112 51.0888 92.0416 50.9875 92.1028 50.8838L92.4327 50.3252C92.5453 50.1417 92.6774 49.9929 92.8298 49.8801C92.9819 49.767 93.1356 49.6893 93.2903 49.6468C93.0463 49.5997 92.8344 49.5067 92.6542 49.3675C92.4737 49.2287 92.3379 49.0635 92.2467 48.8727C92.1555 48.6819 92.1097 48.4875 92.1097 48.2897C92.1097 47.7949 92.2699 47.4134 92.5911 47.1448C92.9116 46.8763 93.3721 46.7421 93.9716 46.7421H95.5176C95.7096 46.7421 95.8571 46.7938 95.9605 46.8974C96.0631 47.001 96.1145 47.1494 96.1145 47.3425V51.124C96.1145 51.3174 96.0563 51.473 95.9391 51.5904C95.8221 51.7082 95.6674 51.7671 95.4754 51.7671C95.2831 51.7671 95.1297 51.7096 95.0152 51.5941V51.5942Z" fill="#148D42"/>
<path d="M58.6994 9.10944C60.0439 10.3754 60.8612 12.4355 60.3017 14.5398C62.5895 11.9651 62.8 8.43699 60.6211 4.44243C56.2726 5.71727 53.9413 8.362 53.749 11.8095C54.8325 9.92366 56.859 9.04826 58.6994 9.10944Z" fill="#FCC300"/>
<path d="M58.8752 12.1959C58.5926 12.8819 57.8109 13.208 57.129 12.9237C56.4471 12.6395 56.123 11.8531 56.4056 11.1673C56.6881 10.4813 57.4698 10.1553 58.152 10.4396C58.8339 10.7234 59.1577 11.5101 58.8752 12.1959Z" fill="#FCC300"/>
<path d="M53.9771 5.89683C53.7534 6.44032 53.134 6.6983 52.594 6.47324C52.0538 6.24823 51.7973 5.62509 52.0211 5.0816C52.2447 4.53851 52.8641 4.28027 53.4044 4.50559C53.9444 4.73061 54.2012 5.35335 53.9771 5.89683Z" fill="#FFD500"/>
<path d="M47.2988 9.10944C49.1392 9.0483 51.1656 9.92366 52.2492 11.8095C52.0568 8.362 49.7256 5.71727 45.3771 4.44243C43.1982 8.43699 43.4088 11.9651 45.6966 14.5398C45.137 12.4355 45.9543 10.3754 47.2988 9.10944Z" fill="#FCC300"/>
<path d="M52.9991 3.23892C54.1042 3.65709 55.0909 4.67566 55.2728 6.06031C55.9998 3.97063 55.2643 1.82851 52.9991 3.05176e-05C50.7338 1.82851 49.998 3.97063 50.7251 6.06031C50.9069 4.67566 51.894 3.65709 52.9991 3.23892Z" fill="#FFD500"/>
<path d="M49.5927 11.167C49.8753 11.853 49.5515 12.6396 48.8696 12.9235C48.1877 13.2078 47.4057 12.8821 47.1231 12.1959C46.8405 11.5099 47.1646 10.7236 47.8465 10.4397C48.5285 10.1554 49.3105 10.4812 49.5927 11.167Z" fill="#FCC300"/>
<path d="M41.8335 10.3009C42.0618 10.8553 41.8001 11.4912 41.2487 11.7208C40.6976 11.9505 40.0657 11.687 39.8371 11.1326C39.6088 10.5782 39.8708 9.9423 40.4219 9.71271C40.9733 9.48299 41.6053 9.7463 41.8335 10.3009Z" fill="#FFD500"/>
<path d="M39.2374 17.2186C40.4959 15.8661 42.544 15.0439 44.6358 15.6068C42.0763 13.3055 38.5689 13.0934 34.5974 15.2854C35.8648 19.6597 38.4943 22.0047 41.9215 22.1981C40.0468 21.1082 39.1766 19.0697 39.2374 17.2186Z" fill="#FCC300"/>
<path d="M39.221 9.09296C40.3182 8.5925 41.7613 8.61127 42.8854 9.47815C41.911 7.44237 39.8437 6.431 36.8975 6.75571C36.5747 9.7193 37.5802 11.7989 39.6041 12.7792C38.7422 11.6481 38.7232 10.1966 39.2211 9.09291L39.221 9.09296Z" fill="#FFD500"/>
<path d="M42.3058 17.0419C42.9877 17.3261 43.3115 18.1123 43.029 18.7983C42.7467 19.4842 41.965 19.8102 41.2828 19.526C40.6009 19.2417 40.2771 18.4551 40.5597 17.7693C40.8419 17.0833 41.6239 16.7576 42.3058 17.0419Z" fill="#FCC300"/>
<path d="M35.9432 21.9903C36.4713 22.2104 36.7222 22.8196 36.5034 23.351C36.2846 23.882 35.679 24.1346 35.1511 23.9146C34.6225 23.6945 34.372 23.0851 34.5908 22.5539C34.8096 22.0226 35.415 21.7702 35.9432 21.9903Z" fill="#FFD500"/>
<path d="M33.3597 22.9523C33.7658 21.8654 34.7562 20.8948 36.102 20.7159C34.0707 20.0007 31.9886 20.7244 30.2114 22.9523C31.9886 25.1803 34.0707 25.904 36.102 25.1888C34.7562 25.0099 33.7659 24.0393 33.3597 22.9523Z" fill="#FFD500"/>
<path d="M66.7609 17.2186C66.8217 19.0697 65.9515 21.1081 64.0768 22.1981C67.504 22.0047 70.1333 19.6597 71.4006 15.2854C67.4295 13.0934 63.9221 13.3055 61.3625 15.6068C63.4541 15.0439 65.5024 15.8661 66.7609 17.2186Z" fill="#FCC300"/>
<path d="M64.7153 19.5259C64.0333 19.8101 63.2513 19.4844 62.9691 18.7985C62.6865 18.1123 63.0103 17.326 63.6922 17.0418C64.3745 16.7575 65.1561 17.0835 65.4383 17.7694C65.7209 18.4554 65.3971 19.2416 64.7153 19.5259Z" fill="#FCC300"/>
<path d="M64.1648 10.3009C63.9365 10.8553 64.1981 11.4912 64.7496 11.7208C65.3007 11.9505 65.9325 11.687 66.1612 11.1326C66.3894 10.5782 66.1275 9.9423 65.5763 9.71271C65.025 9.48299 64.3931 9.7463 64.1648 10.3009Z" fill="#FFD500"/>
<path d="M66.7773 9.09296C65.68 8.5925 64.2369 8.61127 63.1125 9.47815C64.0868 7.44237 66.1545 6.431 69.1007 6.75571C69.4235 9.7193 68.4178 11.7989 66.3943 12.7792C67.256 11.6481 67.2746 10.1966 66.7772 9.09291L66.7773 9.09296Z" fill="#FFD500"/>
<path d="M70.0548 21.9903C69.5267 22.2104 69.2758 22.8196 69.4946 23.351C69.7134 23.882 70.3191 24.1346 70.847 23.9146C71.3756 23.6945 71.6264 23.0851 71.4076 22.5539C71.1887 22.0226 70.5831 21.7702 70.0548 21.9903Z" fill="#FFD500"/>
<path d="M72.6384 22.9523C72.2322 21.8654 71.2418 20.8948 69.896 20.7159C71.9273 20.0007 74.0094 20.7244 75.7866 22.9523C74.0094 25.1803 71.9273 25.904 69.896 25.1888C71.2418 25.0099 72.2322 24.0393 72.6384 22.9523Z" fill="#FFD500"/>
<path d="M60.416 26.4684C47.021 17.5732 42.4298 29.5356 33.2463 26.2937C35.8444 36.2923 44.4416 35.3906 50.9045 32.2941C54.8171 30.4196 57.7306 27.9626 60.416 26.4684Z" fill="#00AAE8"/>
<path d="M52.7728 34.9896C46.9727 37.6126 40.8898 38.3549 35.22 32.2264C37.3157 36.2967 40.7949 39.6741 45.3346 41.5655C55.5541 45.8236 67.27 40.942 71.5031 30.6622C71.8072 29.9236 72.0627 29.1771 72.2746 28.4263C66.14 26.3199 59.6166 31.8948 52.7728 34.9896V34.9896Z" fill="#17A540"/>
<path d="M61.0144 22.6718C60.9064 19.6116 59.0648 16.7472 56.0682 15.4986C51.9758 13.7934 47.2841 15.7483 45.589 19.8649C45.3094 20.5436 45.1311 21.2387 45.0425 21.934C50.4258 19.1945 56.2285 19.407 61.0144 22.6718Z" fill="#F7A707"/>
<path d="M38.8237 47.2094C38.8237 47.0839 38.8816 46.9753 38.9974 46.8836C39.1132 46.7919 39.2529 46.7461 39.4167 46.7461C39.5804 46.7461 39.7202 46.7919 39.8361 46.8836C39.9517 46.9752 40.0097 47.0839 40.0097 47.2094V51.5157C40.0097 51.6413 39.9517 51.7498 39.8361 51.8415C39.7203 51.9332 39.5804 51.979 39.4167 51.979C39.2529 51.979 39.1132 51.9332 38.9974 51.8415C38.8816 51.7499 38.8237 51.6413 38.8237 51.5157V47.2094ZM35.6218 48.541H36.2571C36.5846 48.541 36.8811 48.5784 37.1465 48.6532C37.4119 48.728 37.6391 48.8354 37.8284 48.9753C38.0176 49.1152 38.1629 49.2902 38.2647 49.5001C38.3663 49.7099 38.4171 49.9477 38.4171 50.2129C38.4171 50.4349 38.379 50.6484 38.3028 50.8535C38.2265 51.0586 38.1037 51.2395 37.9343 51.3964C37.7649 51.5532 37.5418 51.6787 37.2652 51.7728C36.9884 51.8669 36.6524 51.9139 36.2571 51.9139H35.0966C35.0062 51.9139 34.9215 51.8994 34.8425 51.8704C34.7634 51.8415 34.6943 51.8041 34.6349 51.7582C34.5756 51.7124 34.5276 51.6582 34.4909 51.5954C34.4543 51.5326 34.4358 51.4651 34.4358 51.3928V47.2238C34.4358 47.0935 34.4952 46.9814 34.6137 46.8872C34.7323 46.7932 34.8707 46.7461 35.0287 46.7461C35.1926 46.7461 35.3322 46.7944 35.4481 46.8909C35.5639 46.9874 35.6217 47.0984 35.6217 47.2238V48.5411L35.6218 48.541ZM35.6218 49.4603V50.9946H36.2571C36.4547 50.9946 36.617 50.9718 36.7441 50.9259C36.8712 50.8801 36.97 50.821 37.0406 50.7486C37.1112 50.6762 37.1606 50.5941 37.1888 50.5025C37.2171 50.4108 37.2312 50.3167 37.2312 50.2202C37.2312 49.9597 37.1493 49.7678 36.9855 49.6448C36.8218 49.5219 36.5789 49.4603 36.257 49.4603H35.6217H35.6218Z" fill="#148D42"/>
<path d="M1.16987 60.6891C0.797249 60.4817 0.50914 60.185 0.305458 59.7985C0.101688 59.4123 0 58.9599 0 58.4414C0 57.9278 0.101688 57.4778 0.305458 57.0912C0.50914 56.7053 0.797293 56.4082 1.16987 56.201C1.54237 55.9936 1.97674 55.89 2.4732 55.89C3.06808 55.89 3.59042 56.048 4.04008 56.3637C4.11988 56.42 4.17682 56.4812 4.21213 56.547C4.24709 56.6131 4.26479 56.698 4.26479 56.8017C4.26479 56.9477 4.22388 57.0714 4.14212 57.1728C4.05997 57.2741 3.96033 57.3244 3.84352 57.3244C3.77326 57.3244 3.71011 57.3138 3.65383 57.2929C3.59754 57.2714 3.53182 57.2376 3.45692 57.1902C3.29274 57.0911 3.13835 57.0207 2.99318 56.9783C2.84801 56.9359 2.69817 56.9146 2.54347 56.9146C2.12645 56.9146 1.8164 57.0408 1.61263 57.2929C1.4086 57.5449 1.30691 57.9278 1.30691 58.4413C1.30691 58.9598 1.4086 59.3451 1.61263 59.597C1.8164 59.8491 2.12645 59.9751 2.54347 59.9751C2.6841 59.9751 2.81983 59.953 2.95101 59.9079C3.08206 59.8632 3.25053 59.7937 3.45692 59.6993C3.55542 59.6477 3.62796 59.6125 3.67476 59.5934C3.72152 59.5746 3.7778 59.5651 3.84352 59.5651C3.96033 59.5651 4.06001 59.6158 4.14212 59.7171C4.22393 59.8184 4.26479 59.9421 4.26479 60.0882C4.26479 60.1873 4.24704 60.2708 4.21213 60.3392C4.17677 60.4077 4.11988 60.4698 4.04008 60.5263C3.59042 60.8422 3.06808 60.9998 2.4732 60.9998C1.97674 60.9998 1.54237 60.8965 1.16987 60.6889V60.6891Z" fill="#148D42"/>
<path d="M5.39591 60.7809C5.29291 60.6776 5.24121 60.5289 5.24121 60.3355V56.554C5.24121 56.361 5.29291 56.2126 5.39591 56.1093C5.49864 56.0053 5.64639 55.9537 5.8388 55.9537H8.26979C8.47089 55.9537 8.62331 55.9961 8.72666 56.081C8.8294 56.1659 8.88101 56.2883 8.88101 56.4481C8.88101 56.7874 8.67724 56.9571 8.26979 56.9571H6.49905V57.9042H8.12916C8.53701 57.9042 8.74078 58.0717 8.74078 58.4059C8.74078 58.5666 8.68878 58.6889 8.58604 58.7735C8.48265 58.8583 8.33062 58.9008 8.12916 58.9008H6.49905V59.9329H8.26979C8.67724 59.9329 8.88101 60.1022 8.88101 60.4418C8.88101 60.602 8.8294 60.7243 8.72666 60.8093C8.62331 60.8942 8.47089 60.9366 8.26979 60.9366H5.8388C5.64639 60.9366 5.49864 60.8846 5.39591 60.781V60.7809Z" fill="#148D42"/>
<path d="M14.6212 56.095C14.7337 56.2125 14.7899 56.3658 14.7899 56.5543V60.3992C14.7899 60.5785 14.7383 60.72 14.6353 60.8233C14.5325 60.9272 14.3966 60.9788 14.2277 60.9788C14.0639 60.9788 13.9291 60.9272 13.8238 60.8233C13.7185 60.72 13.6658 60.5785 13.6658 60.3992V58.3213L12.8649 59.8054C12.7851 59.9564 12.7007 60.0636 12.6117 60.1272C12.5228 60.1906 12.4175 60.2226 12.2958 60.2226C12.1738 60.2226 12.0682 60.1906 11.9795 60.1272C11.8902 60.0636 11.8062 59.9564 11.7264 59.8054L10.9326 58.3638V60.3992C10.9326 60.5736 10.88 60.7137 10.7743 60.8197C10.669 60.9259 10.532 60.9789 10.3632 60.9789C10.199 60.9789 10.0646 60.9272 9.95929 60.8234C9.85393 60.72 9.80127 60.5786 9.80127 60.3992V56.5544C9.80127 56.3659 9.85821 56.2126 9.97336 56.0951C10.0881 55.9773 10.2343 55.9184 10.4126 55.9184C10.5391 55.9184 10.6536 55.9546 10.7569 56.028C10.8596 56.101 10.9467 56.2057 11.0166 56.3425L12.3098 58.7878L13.5955 56.3425C13.7407 56.0599 13.9373 55.9184 14.1855 55.9184C14.3637 55.9184 14.5087 55.9773 14.6212 56.0951V56.095Z" fill="#148D42"/>
<path d="M16.2093 60.7809C16.1063 60.6776 16.0547 60.5289 16.0547 60.3355V56.554C16.0547 56.361 16.1063 56.2126 16.2093 56.1093C16.312 56.0053 16.4599 55.9537 16.6522 55.9537H19.0832C19.2843 55.9537 19.4367 55.9961 19.5401 56.081C19.6428 56.1659 19.6944 56.2883 19.6944 56.4481C19.6944 56.7874 19.4907 56.9571 19.0832 56.9571H17.3125V57.9042H18.9426C19.3504 57.9042 19.5542 58.0717 19.5542 58.4059C19.5542 58.5666 19.5022 58.6889 19.3995 58.7735C19.2961 58.8583 19.144 58.9008 18.9426 58.9008H17.3125V59.9329H19.0832C19.4907 59.9329 19.6944 60.1022 19.6944 60.4418C19.6944 60.602 19.6428 60.7243 19.5401 60.8093C19.4367 60.8942 19.2843 60.9366 19.0832 60.9366H16.6522C16.4599 60.9366 16.312 60.8846 16.2093 60.781V60.7809Z" fill="#148D42"/>
<path d="M21.9111 55.2222C21.6415 55.0643 21.46 54.8604 21.3665 54.611C21.3429 54.5495 21.3315 54.4859 21.3315 54.4201C21.3315 54.302 21.3701 54.2066 21.4473 54.1336C21.5244 54.0608 21.6148 54.024 21.7178 54.024C21.7927 54.024 21.8631 54.0453 21.9287 54.0878C21.9941 54.1303 22.0455 54.1915 22.0831 54.2714C22.1675 54.4461 22.2773 54.5741 22.4134 54.6567C22.5491 54.7389 22.699 54.7803 22.8631 54.7803C23.0319 54.7803 23.1839 54.7378 23.32 54.6534C23.4558 54.5684 23.566 54.4411 23.65 54.2714C23.6922 54.1915 23.7448 54.1302 23.8083 54.0878C23.8715 54.0453 23.9404 54.024 24.0156 54.024C24.1184 54.024 24.2087 54.0608 24.2862 54.1335C24.3633 54.2066 24.4019 54.2996 24.4019 54.4129V54.448C24.4019 54.4905 24.3901 54.5425 24.3669 54.6036C24.2826 54.8533 24.1033 55.0583 23.8293 55.2185C23.5551 55.3787 23.233 55.459 22.8631 55.459C22.4978 55.459 22.1802 55.3798 21.911 55.2221L21.9111 55.2222ZM24.0262 55.9996C24.1361 55.9407 24.3036 55.9115 24.5285 55.9115C24.7206 55.9115 24.868 55.9618 24.9707 56.0635C25.0741 56.1644 25.1254 56.3118 25.1254 56.5045V60.3357C25.1254 60.5292 25.0682 60.6847 24.9534 60.8022C24.8386 60.92 24.6852 60.9788 24.4935 60.9788C24.3012 60.9788 24.1479 60.9213 24.033 60.8059C23.9182 60.6903 23.861 60.5337 23.861 60.3357V57.8054L22.1394 60.4133C22.0268 60.5738 21.9252 60.6952 21.834 60.7775C21.7424 60.8601 21.6484 60.9144 21.5527 60.94C21.4565 60.9656 21.3384 60.9788 21.1978 60.9788C21.0055 60.9788 20.858 60.9284 20.7553 60.8268C20.6519 60.7258 20.6006 60.5784 20.6006 60.385V56.5542C20.6006 56.3611 20.6579 56.2055 20.7729 56.088C20.8874 55.97 21.0409 55.9114 21.2331 55.9114C21.4251 55.9114 21.5782 55.969 21.6934 56.0844C21.8081 56.1999 21.8653 56.3565 21.8653 56.5542V59.0776L23.6995 56.3213C23.8071 56.1657 23.916 56.0585 24.0262 55.9996H24.0262Z" fill="#148D42"/>
<path d="M30.757 56.0916C30.872 56.207 30.929 56.361 30.929 56.5542V60.3355C30.929 60.529 30.872 60.6846 30.757 60.802C30.6422 60.9202 30.4891 60.9788 30.2972 60.9788C30.1047 60.9788 29.9514 60.9215 29.8369 60.8056C29.7218 60.6905 29.6646 60.5336 29.6646 60.3355V58.9222H27.641V60.3355C27.641 60.529 27.5835 60.6846 27.4687 60.802C27.3539 60.9202 27.2005 60.9788 27.0085 60.9788C26.8162 60.9788 26.6628 60.9215 26.5483 60.8056C26.4332 60.6905 26.376 60.5336 26.376 60.3355V56.5542C26.376 56.361 26.4332 56.2071 26.5483 56.0916C26.6628 55.9758 26.8162 55.9185 27.0085 55.9185C27.2005 55.9185 27.3539 55.9758 27.4687 56.0916C27.5835 56.207 27.641 56.361 27.641 56.5542V57.8901H29.6646V56.5542C29.6646 56.361 29.7218 56.2071 29.8369 56.0916C29.9514 55.9758 30.1047 55.9185 30.2972 55.9185C30.4891 55.9185 30.6421 55.9758 30.757 56.0916Z" fill="#148D42"/>
<path d="M35.4121 59.6041C35.623 59.338 35.7283 58.9503 35.7283 58.4415C35.7283 57.9325 35.6217 57.5464 35.4085 57.2821C35.1952 57.0186 34.9035 56.8863 34.5336 56.8863C34.1588 56.8863 33.8661 57.0172 33.6554 57.2788C33.4445 57.5403 33.3392 57.9279 33.3392 58.4415C33.3392 58.955 33.4445 59.3439 33.6554 59.6077C33.866 59.8716 34.1587 60.0035 34.5336 60.0035C34.9084 60.0035 35.2011 59.8706 35.4121 59.6041L35.4121 59.6041ZM33.2162 60.6856C32.8437 60.476 32.5569 60.1793 32.3554 59.7949C32.1539 59.411 32.0532 58.96 32.0532 58.4415C32.0532 57.9233 32.1539 57.4723 32.3554 57.0881C32.5568 56.7041 32.8437 56.4083 33.2162 56.2011C33.5887 55.9935 34.0279 55.8902 34.5336 55.8902C35.0396 55.8902 35.4789 55.9935 35.8513 56.2011C36.2232 56.4083 36.5091 56.7042 36.7082 57.0881C36.9074 57.4723 37.0068 57.9234 37.0068 58.4415C37.0068 58.96 36.9061 59.411 36.7046 59.7949C36.5035 60.1793 36.2163 60.476 35.8441 60.6856C35.4719 60.8955 35.035 61 34.5336 61C34.0279 61 33.5886 60.8954 33.2161 60.6856H33.2162Z" fill="#148D42"/>
<path d="M42.9581 56.095C43.0707 56.2125 43.127 56.3658 43.127 56.5543V60.3992C43.127 60.5785 43.0753 60.72 42.9723 60.8233C42.8696 60.9272 42.7336 60.9788 42.5649 60.9788C42.4009 60.9788 42.2663 60.9272 42.1609 60.8233C42.0556 60.72 42.0029 60.5785 42.0029 60.3992V58.3213L41.2019 59.8054C41.1222 59.9564 41.0377 60.0636 40.9488 60.1272C40.8598 60.1906 40.7545 60.2226 40.6329 60.2226C40.5109 60.2226 40.4053 60.1906 40.3166 60.1272C40.2273 60.0636 40.1433 59.9564 40.0634 59.8054L39.2697 58.3638V60.3992C39.2697 60.5736 39.217 60.7137 39.1114 60.8197C39.0061 60.9259 38.8691 60.9789 38.7002 60.9789C38.536 60.9789 38.4016 60.9272 38.2964 60.8234C38.191 60.72 38.1384 60.5786 38.1384 60.3992V56.5544C38.1384 56.3659 38.1952 56.2126 38.3104 56.0951C38.4251 55.9773 38.5714 55.9184 38.7496 55.9184C38.8762 55.9184 38.9906 55.9546 39.094 56.028C39.1966 56.101 39.2837 56.2057 39.3537 56.3425L40.6469 58.7878L41.9325 56.3425C42.0778 56.0599 42.2743 55.9184 42.5225 55.9184C42.7008 55.9184 42.8457 55.9773 42.9581 56.0951V56.095Z" fill="#148D42"/>
<path d="M47.6872 55.9996C47.7807 55.9404 47.8814 55.9111 47.9893 55.9111C48.1484 55.9111 48.289 55.9664 48.411 56.0773C48.5326 56.1878 48.5934 56.3257 48.5934 56.4905C48.5934 56.5991 48.5676 56.7027 48.5159 56.8017L46.6122 60.6114C46.551 60.7342 46.4738 60.8259 46.3803 60.8867C46.2864 60.948 46.1857 60.9788 46.078 60.9788C45.9187 60.9788 45.7768 60.92 45.6529 60.8022C45.5285 60.6844 45.4668 60.5432 45.4668 60.3782C45.4668 60.2837 45.49 60.1896 45.5371 60.0953L45.8743 59.4237L44.3282 56.8297C44.2583 56.7214 44.2229 56.6037 44.2229 56.4764C44.2229 56.3165 44.2815 56.1809 44.3986 56.0704C44.5157 55.9595 44.6491 55.9042 44.7992 55.9042C44.8977 55.9042 44.9899 55.9299 45.0769 55.9819C45.1633 56.0338 45.2395 56.1138 45.3052 56.2224L46.4786 58.215L47.4552 56.2649C47.5161 56.1467 47.5932 56.0586 47.6872 55.9996Z" fill="#148D42"/>
<path d="M54.8926 59.8302C55.0024 59.748 55.0578 59.6125 55.0578 59.424C55.0578 59.2355 55.0024 59.0999 54.8926 59.0173C54.7823 58.9351 54.5986 58.8936 54.3409 58.8936H53.2939V59.954H54.3409C54.5986 59.954 54.7823 59.9128 54.8926 59.8302ZM53.2939 57.9113H54.2146C54.4579 57.9113 54.6361 57.8738 54.7487 57.7981C54.8608 57.7231 54.9171 57.6027 54.9171 57.4378C54.9171 57.2635 54.8608 57.1365 54.7487 57.0559C54.6361 56.9759 54.4579 56.9358 54.2146 56.9358H53.2939V57.9113V57.9113ZM56.0275 58.7983C56.1815 59.0081 56.259 59.2661 56.259 59.5724C56.259 59.8457 56.1877 60.0845 56.0448 60.2896C55.9019 60.4948 55.6981 60.6537 55.4336 60.7669C55.169 60.8798 54.8586 60.9364 54.5028 60.9364H52.6336C52.4412 60.9364 52.2937 60.8847 52.1907 60.7811C52.0877 60.6774 52.0364 60.5291 52.0364 60.3357V56.5543C52.0364 56.3611 52.0877 56.2127 52.1907 56.1091C52.2937 56.0054 52.4412 55.9539 52.6336 55.9539H54.4324C54.9525 55.9539 55.3655 56.0703 55.6727 56.3036C55.9791 56.5365 56.1325 56.8511 56.1325 57.2468C56.1325 57.5014 56.0648 57.7264 55.9291 57.9219C55.793 58.1176 55.6033 58.2604 55.36 58.3496C55.65 58.439 55.8728 58.5891 56.0276 58.7983L56.0275 58.7983Z" fill="#148D42"/>
<path d="M60.503 59.6041C60.7139 59.338 60.8193 58.9503 60.8193 58.4415C60.8193 57.9325 60.7127 57.5464 60.4994 57.2821C60.2862 57.0186 59.9945 56.8863 59.6245 56.8863C59.2497 56.8863 58.957 57.0172 58.7464 57.2788C58.5355 57.5403 58.4301 57.9279 58.4301 58.4415C58.4301 58.955 58.5355 59.3439 58.7464 59.6077C58.957 59.8716 59.2497 60.0035 59.6245 60.0035C59.9994 60.0035 60.292 59.8706 60.5031 59.6041L60.503 59.6041ZM58.3071 60.6856C57.9346 60.476 57.6478 60.1793 57.4463 59.7949C57.2449 59.411 57.144 58.96 57.144 58.4415C57.144 57.9233 57.2448 57.4723 57.4463 57.0881C57.6478 56.7041 57.9346 56.4083 58.3071 56.2011C58.6796 55.9935 59.1189 55.8902 59.6245 55.8902C60.1305 55.8902 60.5697 55.9935 60.9422 56.2011C61.3142 56.4083 61.6 56.7042 61.7991 57.0881C61.9984 57.4723 62.0977 57.9234 62.0977 58.4415C62.0977 58.96 61.9971 59.411 61.7955 59.7949C61.5944 60.1793 61.3072 60.476 60.935 60.6856C60.5628 60.8955 60.1259 61 59.6245 61C59.1189 61 58.6796 60.8954 58.3071 60.6856H58.3071Z" fill="#148D42"/>
<path d="M64.2585 60.6891C63.886 60.4817 63.5979 60.185 63.3941 59.7985C63.1904 59.4123 63.0886 58.9599 63.0886 58.4414C63.0886 57.9278 63.1904 57.4778 63.3941 57.0912C63.5979 56.7053 63.886 56.4082 64.2585 56.201C64.631 55.9936 65.0654 55.89 65.5618 55.89C66.1567 55.89 66.6791 56.048 67.1288 56.3637C67.2086 56.42 67.2655 56.4812 67.3008 56.547C67.3358 56.6131 67.3534 56.698 67.3534 56.8017C67.3534 56.9477 67.3125 57.0714 67.2308 57.1728C67.1487 57.2741 67.049 57.3244 66.9323 57.3244C66.8619 57.3244 66.7988 57.3138 66.7426 57.2929C66.6863 57.2714 66.6206 57.2376 66.5457 57.1902C66.3815 57.0911 66.2271 57.0207 66.0818 56.9783C65.9366 56.9359 65.7868 56.9146 65.6322 56.9146C65.2152 56.9146 64.9051 57.0408 64.7014 57.2929C64.4973 57.5449 64.3955 57.9278 64.3955 58.4413C64.3955 58.9598 64.4973 59.3451 64.7014 59.597C64.9051 59.8491 65.2152 59.9751 65.6322 59.9751C65.7729 59.9751 65.9086 59.953 66.0396 59.9079C66.1708 59.8632 66.3393 59.7937 66.5457 59.6993C66.6441 59.6477 66.7167 59.6125 66.7634 59.5934C66.8102 59.5746 66.8665 59.5651 66.9323 59.5651C67.049 59.5651 67.1488 59.6158 67.2308 59.7171C67.3125 59.8184 67.3534 59.9421 67.3534 60.0882C67.3534 60.1873 67.3358 60.2708 67.3008 60.3392C67.2654 60.4077 67.2086 60.4698 67.1288 60.5263C66.6791 60.8422 66.1567 60.9998 65.5618 60.9998C65.0654 60.9998 64.631 60.8965 64.2585 60.6889V60.6891Z" fill="#148D42"/>
<path d="M68.5019 60.8057C68.3868 60.6902 68.3298 60.5336 68.3298 60.3355V56.5897C68.3298 56.4012 68.3881 56.2479 68.5055 56.1304C68.6223 56.0126 68.7747 55.9538 68.962 55.9538H72.1312C72.3183 55.9538 72.4707 56.0126 72.5875 56.1304C72.7049 56.2479 72.7632 56.4012 72.7632 56.5897V60.3355C72.7632 60.529 72.7059 60.6845 72.5911 60.802C72.4763 60.9201 72.3232 60.9787 72.1312 60.9787C71.9389 60.9787 71.7855 60.9214 71.6707 60.8057C71.556 60.6902 71.4988 60.5336 71.4988 60.3355V56.9713H69.5946V60.3355C69.5946 60.529 69.537 60.6845 69.4223 60.802C69.3074 60.9201 69.154 60.9787 68.962 60.9787C68.7698 60.9787 68.6167 60.9214 68.5019 60.8057Z" fill="#148D42"/>
<path d="M77.4394 55.9996C77.5494 55.9404 77.7172 55.9111 77.9418 55.9111C78.1338 55.9111 78.2813 55.9619 78.3843 56.0632C78.4873 56.1645 78.5387 56.3116 78.5387 56.5046V60.3357C78.5387 60.5292 78.4817 60.6845 78.3667 60.8023C78.2518 60.92 78.0987 60.9789 77.9068 60.9789C77.7145 60.9789 77.5611 60.9213 77.4463 60.8055C77.3315 60.6904 77.2743 60.5335 77.2743 60.3357V57.8052L75.5527 60.4134C75.4405 60.5736 75.3384 60.695 75.2472 60.7773C75.156 60.8598 75.0618 60.914 74.9662 60.9401C74.8701 60.9657 74.7517 60.9788 74.6114 60.9788C74.419 60.9788 74.2713 60.9282 74.1685 60.8268C74.0655 60.7256 74.0139 60.5785 74.0139 60.3851V56.5543C74.0139 56.3611 74.0711 56.2056 74.1863 56.0881C74.3006 55.97 74.4541 55.9111 74.6464 55.9111C74.8384 55.9111 74.9918 55.9687 75.1066 56.0845C75.2214 56.1996 75.279 56.3566 75.279 56.5543V59.0773L77.1127 56.3215C77.2203 56.1658 77.3293 56.0585 77.4395 55.9996H77.4394Z" fill="#148D42"/>
<path d="M81.0858 60.7986C80.9665 60.6831 80.9066 60.5291 80.9066 60.3357V57.0067H79.916C79.7096 57.0067 79.5563 56.9632 79.4558 56.8757C79.3548 56.7889 79.3047 56.6556 79.3047 56.4763C79.3047 56.2974 79.3548 56.1658 79.4558 56.0809C79.5562 55.996 79.7096 55.9536 79.916 55.9536H83.2045C83.4103 55.9536 83.5637 55.996 83.6648 56.0809C83.7652 56.1658 83.8159 56.2974 83.8159 56.4763C83.8159 56.6556 83.7652 56.7889 83.6648 56.8757C83.5637 56.9633 83.4103 57.0067 83.2045 57.0067H82.2136V60.3357C82.2136 60.5291 82.1541 60.683 82.0344 60.7986C81.915 60.9143 81.757 60.9716 81.5602 60.9716C81.3636 60.9716 81.2053 60.9143 81.0859 60.7986H81.0858Z" fill="#148D42"/>
<path d="M85.4668 58.9291H86.8722L86.1693 57.3529L85.4668 58.9291ZM88.741 60.3993C88.741 60.5546 88.6789 60.687 88.5546 60.7951C88.4309 60.9036 88.289 60.9576 88.1297 60.9576C88.0217 60.9576 87.9236 60.9294 87.8346 60.8728C87.7457 60.8161 87.6753 60.7316 87.624 60.6185L87.3078 59.9046H85.0311L84.708 60.6185C84.656 60.7316 84.585 60.8161 84.4935 60.8728C84.4022 60.9294 84.3024 60.9576 84.1949 60.9576C84.0356 60.9576 83.8916 60.9036 83.7629 60.7951C83.634 60.687 83.5696 60.5546 83.5696 60.3993C83.5696 60.3145 83.5908 60.2273 83.633 60.1378L85.4878 56.307C85.5485 56.1801 85.6389 56.082 85.7586 56.0139C85.878 55.9455 86.0101 55.9112 86.1553 55.9112C86.2959 55.9112 86.4272 55.9455 86.5491 56.0139C86.6708 56.082 86.762 56.1801 86.8228 56.307L88.6775 60.1378C88.7198 60.2273 88.7411 60.3145 88.7411 60.3993H88.741Z" fill="#148D42"/>
<path d="M94.014 56.0916C94.1291 56.207 94.1861 56.361 94.1861 56.5542V60.3355C94.1861 60.529 94.1291 60.6846 94.014 60.802C93.8992 60.9202 93.7462 60.9788 93.5542 60.9788C93.3619 60.9788 93.2085 60.9215 93.094 60.8056C92.9789 60.6905 92.9217 60.5336 92.9217 60.3355V58.9222H90.8981V60.3355C90.8981 60.529 90.8405 60.6846 90.7258 60.802C90.611 60.9202 90.4576 60.9788 90.2656 60.9788C90.0732 60.9788 89.9199 60.9215 89.8054 60.8056C89.6903 60.6905 89.6331 60.5336 89.6331 60.3355V56.5542C89.6331 56.361 89.6903 56.2071 89.8054 56.0916C89.9199 55.9758 90.0732 55.9185 90.2656 55.9185C90.4576 55.9185 90.611 55.9758 90.7258 56.0916C90.8405 56.207 90.8981 56.361 90.8981 56.5542V57.8901H92.9217V56.5542C92.9217 56.361 92.9789 56.2071 93.094 56.0916C93.2085 55.9758 93.3619 55.9185 93.5542 55.9185C93.7462 55.9185 93.8992 55.9758 94.014 56.0916Z" fill="#148D42"/>
<path d="M98.8624 55.9996C98.9722 55.9404 99.1401 55.9111 99.3648 55.9111C99.5567 55.9111 99.7042 55.9619 99.8073 56.0632C99.9103 56.1645 99.9616 56.3116 99.9616 56.5046V60.3357C99.9616 60.5292 99.9047 60.6845 99.7895 60.8023C99.6748 60.92 99.5217 60.9789 99.3297 60.9789C99.1374 60.9789 98.984 60.9213 98.8692 60.8055C98.7544 60.6904 98.6971 60.5335 98.6971 60.3357V57.8052L96.9755 60.4134C96.8633 60.5736 96.7614 60.695 96.67 60.7773C96.5788 60.8598 96.4847 60.914 96.3891 60.9401C96.293 60.9657 96.1746 60.9788 96.0343 60.9788C95.842 60.9788 95.6941 60.9282 95.5915 60.8268C95.4884 60.7256 95.4368 60.5785 95.4368 60.3851V56.5543C95.4368 56.3611 95.494 56.2056 95.6091 56.0881C95.7236 55.97 95.877 55.9111 96.0693 55.9111C96.2613 55.9111 96.4147 55.9687 96.5295 56.0845C96.6443 56.1996 96.7018 56.3566 96.7018 56.5543V59.0773L98.5357 56.3215C98.6432 56.1658 98.7522 56.0585 98.8624 55.9996H98.8624Z" fill="#148D42"/>
<path d="M106.429 59.6076C106.624 59.3437 106.721 58.9552 106.721 58.4414C106.721 57.9281 106.623 57.5402 106.426 57.2787C106.229 57.0172 105.948 56.8866 105.583 56.8866C105.213 56.8866 104.93 57.0161 104.736 57.2751C104.542 57.5343 104.445 57.9232 104.445 58.4414C104.445 58.9599 104.542 59.3496 104.736 59.6112C104.93 59.8727 105.213 60.0034 105.583 60.0034C105.953 60.0034 106.235 59.8719 106.429 59.6076ZM103.946 60.4451C103.529 60.0754 103.28 59.5678 103.201 58.922H102.477V60.3357C102.477 60.5291 102.42 60.6844 102.305 60.8021C102.19 60.9199 102.037 60.9789 101.845 60.9789C101.653 60.9789 101.499 60.9213 101.384 60.8058C101.27 60.6904 101.212 60.5334 101.212 60.3357V56.5542C101.212 56.3612 101.27 56.2055 101.384 56.0881C101.499 55.97 101.653 55.9114 101.845 55.9114C102.037 55.9114 102.19 55.9686 102.305 56.0845C102.42 56.1999 102.477 56.3565 102.477 56.5542V57.8899H103.208C103.306 57.2635 103.561 56.7734 103.974 56.4203C104.386 56.0667 104.923 55.89 105.583 55.89C106.084 55.89 106.516 55.9936 106.879 56.2012C107.242 56.4082 107.52 56.704 107.712 57.0879C107.904 57.4722 108 57.9232 108 58.4413C108 58.9598 107.904 59.4122 107.712 59.7984C107.52 60.1849 107.242 60.4817 106.879 60.689C106.516 60.8966 106.084 60.9998 105.583 60.9998C104.909 60.9998 104.363 60.8153 103.946 60.4451H103.946Z" fill="#148D42"/>
</g>
<defs>
<clipPath id="clip0_170_6902">
<rect width="108" height="61" fill="white"/>
</clipPath>
</defs>
</svg>
