<svg width="83" height="48" viewBox="0 0 83 48" fill="none" xmlns="http://www.w3.org/2000/svg">
<g clip-path="url(#clip0_170_5744)">
<path d="M9.35022 41.5663C9.26723 41.4752 9.22606 41.3522 9.22606 41.1963V40.7013H6.77438C6.62662 40.7013 6.51327 40.6607 6.43405 40.5792C6.35486 40.4976 6.31543 40.3809 6.31543 40.2287V37.2531C6.31543 37.1012 6.35946 36.9787 6.44765 36.8863C6.53584 36.7934 6.65348 36.7473 6.80128 36.7473C6.94885 36.7473 7.06673 36.7926 7.15526 36.8835C7.24314 36.9743 7.28741 37.0976 7.28741 37.2531V39.9004H8.62135V37.2531C8.62135 37.1012 8.66511 36.9787 8.75357 36.8863C8.84176 36.7934 8.95941 36.7473 9.10721 36.7473C9.25478 36.7473 9.37265 36.7926 9.46061 36.8835C9.54907 36.9743 9.59306 37.0976 9.59306 37.2531V39.9004H9.674C9.82187 39.9004 9.93592 39.9416 10.0168 40.0229C10.0981 40.1047 10.1385 40.2214 10.1385 40.3734V41.1963C10.1385 41.3483 10.0973 41.4708 10.0144 41.5634C9.93165 41.6561 9.81979 41.7025 9.67954 41.7025C9.54286 41.7025 9.43297 41.6571 9.35029 41.5663H9.35022Z" fill="white"/>
<path d="M11.0027 40.579C10.9235 40.4978 10.8838 40.3808 10.8838 40.2285V37.253C10.8838 37.1011 10.9235 36.9843 11.0027 36.903C11.0816 36.8212 11.1952 36.7805 11.343 36.7805H13.2113C13.3659 36.7805 13.483 36.814 13.5625 36.8808C13.6413 36.9475 13.681 37.0438 13.681 37.1697C13.681 37.4366 13.5245 37.5701 13.2113 37.5701H11.8505V38.3155H13.1032C13.4167 38.3155 13.5732 38.4472 13.5732 38.7102C13.5732 38.8366 13.5332 38.9329 13.4544 38.9994C13.3749 39.0662 13.258 39.0996 13.1032 39.0996H11.8505V39.9117H13.2113C13.5245 39.9117 13.681 40.0451 13.681 40.3122C13.681 40.4383 13.6413 40.5346 13.5625 40.6014C13.483 40.6682 13.3659 40.7015 13.2113 40.7015H11.343C11.1952 40.7015 11.0816 40.6607 11.0027 40.5791V40.579Z" fill="white"/>
<path d="M17.7439 36.8891C17.8323 36.9799 17.8761 37.1011 17.8761 37.2531V40.2286C17.8761 40.3809 17.8323 40.5032 17.7439 40.5957C17.6557 40.6886 17.538 40.7347 17.3905 40.7347C17.2426 40.7347 17.1248 40.6896 17.0367 40.5985C16.9484 40.508 16.9043 40.3844 16.9043 40.2286V39.1165H15.3492V40.2286C15.3492 40.3809 15.305 40.5032 15.2168 40.5957C15.1285 40.6886 15.0107 40.7347 14.8631 40.7347C14.7153 40.7347 14.5974 40.6896 14.5095 40.5985C14.421 40.508 14.377 40.3844 14.377 40.2286V37.2531C14.377 37.1011 14.421 36.9799 14.5095 36.8891C14.5974 36.7979 14.7153 36.7529 14.8631 36.7529C15.0107 36.7529 15.1285 36.7979 15.2168 36.8891C15.305 36.9799 15.3492 37.1011 15.3492 37.2531V38.3043H16.9043V37.2531C16.9043 37.1011 16.9484 36.9799 17.0367 36.8891C17.1247 36.7979 17.2426 36.7529 17.3905 36.7529C17.538 36.7529 17.6556 36.7979 17.7439 36.8891Z" fill="white"/>
<path d="M19.8337 40.593C19.742 40.5021 19.696 40.381 19.696 40.2287V37.6091H18.9347C18.7761 37.6091 18.6582 37.5749 18.581 37.5061C18.5033 37.4378 18.4648 37.333 18.4648 37.1918C18.4648 37.051 18.5033 36.9475 18.581 36.8807C18.6582 36.8138 18.7761 36.7805 18.9347 36.7805H21.462C21.6201 36.7805 21.738 36.8138 21.8157 36.8807C21.8928 36.9475 21.9318 37.051 21.9318 37.1918C21.9318 37.3329 21.8928 37.4378 21.8157 37.5061C21.738 37.575 21.6201 37.6091 21.462 37.6091H20.7004V40.2287C20.7004 40.381 20.6547 40.5021 20.5627 40.593C20.471 40.6841 20.3496 40.7292 20.1982 40.7292C20.0472 40.7292 19.9255 40.6841 19.8338 40.593H19.8337Z" fill="white"/>
<path d="M24.6341 38.3989C24.7224 38.3209 24.7663 38.2006 24.7663 38.0374C24.7663 37.7147 24.5864 37.5534 24.2264 37.5534H23.5136V38.5156H24.2264C24.41 38.5156 24.5457 38.4768 24.6341 38.3989V38.3989ZM22.6522 40.5985C22.564 40.5076 22.52 40.3844 22.52 40.2285V37.253C22.52 37.101 22.5595 36.9843 22.6389 36.903C22.7179 36.8213 22.8312 36.7806 22.979 36.7806H24.3614C24.7827 36.7806 25.1102 36.8909 25.3442 37.1114C25.5782 37.332 25.6951 37.6387 25.6951 38.0317C25.6951 38.4211 25.5772 38.7271 25.3414 38.9494C25.1056 39.1718 24.7789 39.2831 24.3614 39.2831H23.5136V40.2285C23.5136 40.3844 23.4683 40.5076 23.3786 40.5984C23.2884 40.6896 23.166 40.7346 23.0114 40.7346C22.8601 40.7346 22.7405 40.6896 22.6522 40.5984V40.5985Z" fill="white"/>
<path d="M34.65 40.5068C34.3637 40.3437 34.1423 40.1102 33.9857 39.806C33.8292 39.5021 33.751 39.1461 33.751 38.7381C33.751 38.3341 33.8292 37.9799 33.9857 37.6757C34.1423 37.372 34.3638 37.1383 34.65 36.9751C34.9363 36.8121 35.2701 36.7305 35.6517 36.7305C36.109 36.7305 36.5103 36.8548 36.8559 37.1032C36.9173 37.1476 36.961 37.1957 36.9881 37.2474C37.015 37.2996 37.0286 37.3663 37.0286 37.4479C37.0286 37.5628 36.9972 37.6602 36.9344 37.7399C36.8712 37.8196 36.7946 37.8592 36.7049 37.8592C36.6508 37.8592 36.6024 37.8509 36.5591 37.8344C36.5159 37.8176 36.4653 37.7908 36.4078 37.7535C36.2816 37.6756 36.163 37.6202 36.0514 37.5869C35.9397 37.5534 35.8247 37.5366 35.7058 37.5366C35.3853 37.5366 35.147 37.6361 34.9904 37.8344C34.8336 38.0326 34.7554 38.334 34.7554 38.7381C34.7554 39.1461 34.8336 39.4492 34.9904 39.6475C35.147 39.8458 35.3853 39.9449 35.7058 39.9449C35.8138 39.9449 35.9182 39.9277 36.019 39.8921C36.1197 39.8569 36.2492 39.8023 36.4078 39.728C36.4834 39.6874 36.5392 39.6596 36.5752 39.6446C36.6111 39.6299 36.6544 39.6223 36.7049 39.6223C36.7946 39.6223 36.8713 39.6623 36.9344 39.7419C36.9972 39.8217 37.0286 39.919 37.0286 40.0339C37.0286 40.1119 37.015 40.1776 36.9881 40.2315C36.961 40.2853 36.9173 40.3343 36.8559 40.3787C36.5103 40.6273 36.109 40.7513 35.6517 40.7513C35.2701 40.7513 34.9363 40.67 34.65 40.5066V40.5068Z" fill="white"/>
<path d="M40.1766 39.653C40.3387 39.4436 40.4197 39.1387 40.4197 38.7382C40.4197 38.3377 40.3377 38.0338 40.1738 37.8259C40.0099 37.6185 39.7857 37.5145 39.5015 37.5145C39.2134 37.5145 38.9884 37.6175 38.8265 37.8233C38.6645 38.0291 38.5835 38.334 38.5835 38.7381C38.5835 39.1423 38.6645 39.4483 38.8265 39.6559C38.9884 39.8635 39.2134 39.9673 39.5015 39.9673C39.7895 39.9673 40.0145 39.8627 40.1766 39.653L40.1766 39.653ZM38.489 40.504C38.2027 40.3391 37.9823 40.1056 37.8275 39.8032C37.6726 39.501 37.5952 39.1462 37.5952 38.7382C37.5952 38.3304 37.6726 37.9755 37.8275 37.6732C37.9823 37.3711 38.2027 37.1383 38.489 36.9753C38.7753 36.8119 39.1129 36.7306 39.5015 36.7306C39.8903 36.7306 40.2279 36.8119 40.5142 36.9753C40.7999 37.1383 41.0196 37.3711 41.1727 37.6732C41.3258 37.9756 41.4022 38.3305 41.4022 38.7382C41.4022 39.1462 41.3248 39.5011 41.1699 39.8032C41.0153 40.1056 40.7946 40.3391 40.5086 40.504C40.2226 40.6692 39.8868 40.7515 39.5015 40.7515C39.1129 40.7515 38.7753 40.6692 38.489 40.504H38.489Z" fill="white"/>
<path d="M44.5236 37.5701H43.5244V37.559C43.5244 38.0597 43.4982 38.4933 43.4462 38.8604C43.394 39.2275 43.3065 39.5762 43.1843 39.906H44.5236V37.5701ZM41.9045 41.5664C41.8215 41.4753 41.7803 41.352 41.7803 41.1965V40.3733C41.7803 40.2213 41.8197 40.1045 41.8992 40.023C41.9781 39.9415 42.0915 39.9005 42.2393 39.9005H42.369C42.4876 39.5708 42.5668 39.2184 42.6065 38.8438C42.646 38.4695 42.6658 38.0522 42.6658 37.5924V37.253C42.6658 37.1011 42.7055 36.9843 42.7847 36.903C42.8636 36.8212 42.9773 36.7805 43.125 36.7805H45.0365C45.1841 36.7805 45.2975 36.8212 45.3767 36.903C45.4558 36.9843 45.4953 37.1011 45.4953 37.253V39.9005H45.5762C45.724 39.9005 45.8376 39.9414 45.9165 40.023C45.9957 40.1045 46.0354 40.2212 46.0354 40.3732V41.1964C46.0354 41.3484 45.9942 41.4706 45.9112 41.5635C45.8283 41.6559 45.7187 41.7026 45.5817 41.7026C45.445 41.7026 45.3352 41.657 45.2522 41.5663C45.1695 41.4753 45.1281 41.352 45.1281 41.1964V40.7014H42.6874V41.1964C42.6874 41.3484 42.646 41.4706 42.5632 41.5635C42.4803 41.6559 42.3707 41.7026 42.234 41.7026C42.097 41.7026 41.9872 41.657 41.9045 41.5663V41.5664Z" fill="white"/>
<path d="M46.8991 40.579C46.8199 40.4978 46.7803 40.3808 46.7803 40.2285V37.253C46.7803 37.1011 46.8199 36.9843 46.8991 36.903C46.978 36.8212 47.0917 36.7805 47.2395 36.7805H49.1077C49.2623 36.7805 49.3795 36.814 49.4588 36.8808C49.5378 36.9475 49.5775 37.0438 49.5775 37.1697C49.5775 37.4366 49.4209 37.5701 49.1077 37.5701H47.747V38.3155H48.9997C49.3131 38.3155 49.4697 38.4472 49.4697 38.7102C49.4697 38.8366 49.4297 38.9329 49.3508 38.9994C49.2714 39.0662 49.1545 39.0996 48.9997 39.0996H47.747V39.9117H49.1077C49.4209 39.9117 49.5775 40.0451 49.5775 40.3122C49.5775 40.4383 49.5378 40.5346 49.4588 40.6014C49.3795 40.6682 49.2623 40.7015 49.1077 40.7015H47.2395C47.0917 40.7015 46.978 40.6607 46.8991 40.5791V40.579Z" fill="white"/>
<path d="M51.281 36.2049C51.0739 36.0807 50.9345 35.9202 50.8626 35.724C50.8445 35.6756 50.8356 35.6256 50.8356 35.5739C50.8356 35.4809 50.8653 35.4058 50.9246 35.3483C50.9839 35.2911 51.0533 35.2621 51.1325 35.2621C51.19 35.2621 51.2441 35.2789 51.2946 35.3124C51.3449 35.3458 51.3843 35.3939 51.4133 35.4568C51.4781 35.5943 51.5625 35.695 51.6671 35.76C51.7714 35.8247 51.8865 35.8573 52.0127 35.8573C52.1424 35.8573 52.2593 35.8238 52.3638 35.7574C52.4681 35.6906 52.5529 35.5904 52.6175 35.4568C52.6499 35.3939 52.6904 35.3458 52.7391 35.3124C52.7876 35.2789 52.8406 35.2621 52.8985 35.2621C52.9774 35.2621 53.0468 35.2911 53.1063 35.3483C53.1657 35.4058 53.1953 35.479 53.1953 35.5681V35.5958C53.1953 35.6293 53.1863 35.6701 53.1684 35.7182C53.1036 35.9147 52.9658 36.0761 52.7552 36.2021C52.5445 36.3282 52.297 36.3913 52.0127 36.3913C51.7319 36.3913 51.4879 36.329 51.281 36.2049L51.281 36.2049ZM52.9066 36.8167C52.991 36.7703 53.1197 36.7473 53.2926 36.7473C53.4402 36.7473 53.5535 36.7869 53.6325 36.8669C53.7119 36.9464 53.7513 37.0624 53.7513 37.2141V40.2287C53.7513 40.3809 53.7074 40.5034 53.6192 40.5958C53.5309 40.6885 53.413 40.7348 53.2658 40.7348C53.1179 40.7348 53.0001 40.6895 52.9119 40.5987C52.8236 40.5078 52.7796 40.3845 52.7796 40.2287V38.2377L51.4565 40.2898C51.37 40.4161 51.2918 40.5116 51.2218 40.5763C51.1514 40.6414 51.0793 40.6841 51.0056 40.7042C50.9317 40.7244 50.8409 40.7347 50.7328 40.7347C50.585 40.7347 50.4717 40.6952 50.3928 40.6152C50.3133 40.5357 50.2739 40.4197 50.2739 40.2675V37.2531C50.2739 37.1012 50.3179 36.9787 50.4064 36.8863C50.4943 36.7934 50.6122 36.7473 50.76 36.7473C50.9076 36.7473 51.0252 36.7926 51.1137 36.8835C51.2019 36.9743 51.2459 37.0976 51.2459 37.2531V39.2387L52.6554 37.0699C52.7382 36.9474 52.8219 36.863 52.9066 36.8167Z" fill="white"/>
<path d="M55.5148 40.5068C55.2285 40.3437 55.0071 40.1102 54.8505 39.806C54.6939 39.5021 54.6157 39.1461 54.6157 38.7381C54.6157 38.3341 54.6939 37.9799 54.8505 37.6757C55.0071 37.372 55.2285 37.1383 55.5148 36.9751C55.8011 36.8121 56.1349 36.7305 56.5164 36.7305C56.9736 36.7305 57.375 36.8548 57.7207 37.1032C57.782 37.1476 57.8257 37.1957 57.8528 37.2474C57.8798 37.2996 57.8933 37.3663 57.8933 37.4479C57.8933 37.5628 57.8619 37.6602 57.799 37.7399C57.7359 37.8196 57.6593 37.8592 57.5696 37.8592C57.5155 37.8592 57.467 37.8509 57.4238 37.8344C57.3806 37.8176 57.3301 37.7908 57.2725 37.7535C57.1463 37.6756 57.0277 37.6202 56.916 37.5869C56.8045 37.5534 56.6893 37.5366 56.5705 37.5366C56.25 37.5366 56.0117 37.6361 55.8552 37.8344C55.6983 38.0326 55.6201 38.334 55.6201 38.7381C55.6201 39.1461 55.6983 39.4492 55.8552 39.6475C56.0117 39.8458 56.25 39.9449 56.5705 39.9449C56.6786 39.9449 56.7829 39.9277 56.8836 39.8921C56.9844 39.8569 57.1139 39.8023 57.2725 39.728C57.3482 39.6874 57.4039 39.6596 57.4398 39.6446C57.4758 39.6299 57.519 39.6223 57.5696 39.6223C57.6593 39.6223 57.736 39.6623 57.799 39.7419C57.8619 39.8217 57.8933 39.919 57.8933 40.0339C57.8933 40.1119 57.8797 40.1776 57.8528 40.2315C57.8257 40.2853 57.782 40.3343 57.7207 40.3787C57.375 40.6273 56.9736 40.7513 56.5164 40.7513C56.1349 40.7513 55.8011 40.67 55.5148 40.5066V40.5068Z" fill="white"/>
<path d="M59.5861 40.593C59.4944 40.5021 59.4484 40.381 59.4484 40.2287V37.6091H58.6871C58.5285 37.6091 58.4106 37.5749 58.3335 37.5061C58.2558 37.4378 58.2173 37.333 58.2173 37.1918C58.2173 37.051 58.2558 36.9475 58.3335 36.8807C58.4106 36.8138 58.5285 36.7805 58.6871 36.7805H61.2144C61.3725 36.7805 61.4904 36.8138 61.5681 36.8807C61.6453 36.9475 61.6843 37.051 61.6843 37.1918C61.6843 37.3329 61.6453 37.4378 61.5681 37.5061C61.4905 37.575 61.3725 37.6091 61.2144 37.6091H60.4529V40.2287C60.4529 40.381 60.4071 40.5021 60.3151 40.593C60.2233 40.6841 60.1019 40.7292 59.9506 40.7292C59.7996 40.7292 59.6779 40.6841 59.5862 40.593H59.5861Z" fill="white"/>
<path d="M64.4675 39.831C64.552 39.7663 64.5944 39.6596 64.5944 39.5113C64.5944 39.3629 64.552 39.2563 64.4675 39.1913C64.3828 39.1266 64.2415 39.094 64.0435 39.094H63.2389V39.9283H64.0435C64.2415 39.9283 64.3828 39.8959 64.4675 39.831ZM63.2389 38.321H63.9464C64.1335 38.321 64.2704 38.2915 64.3569 38.2319C64.4431 38.1728 64.4864 38.0781 64.4864 37.9485C64.4864 37.8112 64.4431 37.7113 64.3569 37.6479C64.2704 37.585 64.1335 37.5534 63.9464 37.5534H63.2389V38.3209V38.321ZM65.3397 39.0189C65.458 39.1841 65.5176 39.387 65.5176 39.628C65.5176 39.8431 65.4628 40.0311 65.353 40.1924C65.2432 40.3539 65.0866 40.479 64.8832 40.568C64.6799 40.6568 64.4414 40.7014 64.1679 40.7014H62.7314C62.5836 40.7014 62.4703 40.6607 62.3911 40.5792C62.3119 40.4977 62.2725 40.3809 62.2725 40.2286V37.2531C62.2725 37.1011 62.3119 36.9844 62.3911 36.9029C62.4703 36.8213 62.5836 36.7807 62.7314 36.7807H64.1139C64.5135 36.7807 64.8309 36.8724 65.067 37.0559C65.3026 37.2391 65.4204 37.4867 65.4204 37.7981C65.4204 37.9984 65.3684 38.1755 65.2641 38.3293C65.1595 38.4833 65.0137 38.5957 64.8267 38.6658C65.0497 38.7363 65.2208 38.8543 65.3397 39.0189L65.3397 39.0189Z" fill="white"/>
<path d="M68.9275 36.8168C69.012 36.7702 69.1409 36.7472 69.3137 36.7472C69.4611 36.7472 69.5746 36.787 69.6537 36.8667C69.7329 36.9465 69.7723 37.0622 69.7723 37.2142V40.2288C69.7723 40.381 69.7286 40.5032 69.6401 40.5958C69.5519 40.6885 69.4343 40.7349 69.2867 40.7349C69.1389 40.7349 69.021 40.6896 68.9328 40.5984C68.8446 40.5079 68.8006 40.3844 68.8006 40.2288V38.2375L67.4775 40.2899C67.3913 40.4159 67.3129 40.5114 67.2427 40.5762C67.1726 40.6411 67.1002 40.6839 67.0268 40.7043C66.953 40.7245 66.862 40.7348 66.7541 40.7348C66.6063 40.7348 66.4927 40.695 66.4138 40.6153C66.3346 40.5355 66.2949 40.4198 66.2949 40.2676V37.2532C66.2949 37.1013 66.3389 36.9788 66.4274 36.8864C66.5153 36.7934 66.6332 36.7471 66.781 36.7471C66.9286 36.7471 67.0465 36.7924 67.1347 36.8835C67.2229 36.9741 67.2672 37.0976 67.2672 37.2532V39.2386L68.6765 37.07C68.7591 36.9475 68.8429 36.8631 68.9276 36.8168H68.9275Z" fill="white"/>
<path d="M72.9049 37.5535H72.365C72.1523 37.5535 71.9912 37.599 71.8817 37.6896C71.7716 37.7807 71.7168 37.9058 71.7168 38.0653C71.7168 38.2247 71.7645 38.3396 71.8601 38.4101C71.9553 38.4806 72.1129 38.5157 72.3326 38.5157H72.9049V37.5535H72.9049ZM73.021 40.5987C72.9326 40.5078 72.8888 40.3845 72.8888 40.2287V39.2833H72.6026C72.3758 39.2833 72.1976 39.3982 72.0679 39.6281L71.5926 40.4845C71.5026 40.6514 71.3711 40.7348 71.1984 40.7348C71.0723 40.7348 70.9599 40.6903 70.8609 40.6012C70.7619 40.5124 70.7124 40.405 70.7124 40.2786C70.7124 40.201 70.7357 40.1213 70.7828 40.0397L71.0363 39.6001C71.1229 39.4557 71.2244 39.3387 71.3415 39.2499C71.4584 39.1609 71.5765 39.0997 71.6954 39.0663C71.5079 39.0293 71.345 38.9561 71.2065 38.8465C71.0678 38.7373 70.9635 38.6073 70.8934 38.4572C70.8233 38.307 70.7881 38.154 70.7881 37.9984C70.7881 37.6091 70.9112 37.3088 71.1581 37.0975C71.4044 36.8863 71.7583 36.7807 72.219 36.7807H73.4071C73.5547 36.7807 73.668 36.8213 73.7475 36.9028C73.8263 36.9844 73.8658 37.1012 73.8658 37.2531V40.2287C73.8658 40.3809 73.8211 40.5033 73.7311 40.5957C73.6411 40.6884 73.5222 40.7347 73.3747 40.7347C73.2269 40.7347 73.109 40.6895 73.021 40.5986V40.5987Z" fill="white"/>
<path d="M45.1116 7.16807C46.1449 8.16424 46.773 9.78533 46.343 11.4411C48.1012 9.41512 48.263 6.63893 46.5885 3.49567C43.2466 4.49882 41.4549 6.57992 41.3071 9.29271C42.1398 7.80877 43.6972 7.11992 45.1116 7.16807Z" fill="white"/>
<path d="M45.2464 9.59679C45.0292 10.1366 44.4285 10.3931 43.9044 10.1694C43.3804 9.94579 43.1313 9.32703 43.3485 8.78733C43.5657 8.2476 44.1664 7.99105 44.6907 8.21474C45.2147 8.43808 45.4636 9.05709 45.2464 9.59679Z" fill="white"/>
<path d="M41.4824 4.64011C41.3105 5.06777 40.8344 5.27077 40.4195 5.09368C40.0043 4.91661 39.8072 4.42628 39.9791 3.99862C40.1511 3.57127 40.6271 3.36806 41.0423 3.54536C41.4573 3.72242 41.6546 4.21245 41.4824 4.64011Z" fill="white"/>
<path d="M36.35 7.16807C37.7643 7.11996 39.3217 7.80877 40.1545 9.29271C40.0066 6.57992 38.215 4.49882 34.8731 3.49567C33.1986 6.63893 33.3605 9.41512 35.1187 11.4411C34.6886 9.78533 35.3167 8.16424 36.35 7.16807Z" fill="white"/>
<path d="M40.731 2.54864C41.5803 2.87768 42.3386 3.67918 42.4784 4.76874C43.0371 3.12441 42.4718 1.43881 40.731 0C38.9901 1.43881 38.4246 3.12441 38.9834 4.76874C39.1231 3.67918 39.8817 2.87768 40.731 2.54864Z" fill="white"/>
<path d="M38.1131 8.78712C38.3303 9.32692 38.0815 9.94589 37.5574 10.1693C37.0333 10.393 36.4324 10.1367 36.2152 9.59668C35.998 9.05692 36.2471 8.43822 36.7712 8.21477C37.2952 7.99108 37.8962 8.24743 38.1131 8.78712Z" fill="white"/>
<path d="M32.1499 8.10559C32.3253 8.54187 32.1242 9.04227 31.7004 9.22293C31.277 9.40366 30.7913 9.19629 30.6156 8.76009C30.4402 8.32385 30.6416 7.82345 31.065 7.64279C31.4888 7.46203 31.9745 7.66921 32.1499 8.10559Z" fill="white"/>
<path d="M30.1548 13.549C31.122 12.4848 32.696 11.8378 34.3035 12.2808C32.3365 10.4699 29.641 10.303 26.5889 12.0278C27.5629 15.4699 29.5837 17.3152 32.2176 17.4674C30.7769 16.6097 30.108 15.0057 30.1548 13.549Z" fill="white"/>
<path d="M30.1423 7.15509C30.9856 6.76129 32.0946 6.77606 32.9585 7.45819C32.2096 5.85626 30.6208 5.06043 28.3567 5.31594C28.1086 7.64795 28.8813 9.28433 30.4367 10.0557C29.7743 9.16572 29.7598 8.02352 30.1424 7.15505L30.1423 7.15509Z" fill="white"/>
<path d="M32.5127 13.41C33.0368 13.6336 33.2856 14.2523 33.0685 14.7921C32.8515 15.3318 32.2508 15.5884 31.7265 15.3647C31.2025 15.141 30.9536 14.522 31.1708 13.9823C31.3877 13.4425 31.9887 13.1863 32.5127 13.41Z" fill="white"/>
<path d="M27.623 17.3038C28.0289 17.477 28.2217 17.9564 28.0536 18.3745C27.8855 18.7923 27.42 18.9911 27.0143 18.818C26.6081 18.6448 26.4156 18.1653 26.5838 17.7473C26.7519 17.3292 27.2171 17.1306 27.623 17.3038Z" fill="white"/>
<path d="M25.6378 18.0608C25.9499 17.2055 26.711 16.4418 27.7453 16.301C26.1842 15.7382 24.5841 16.3077 23.2183 18.0608C24.5841 19.8139 26.1842 20.3835 27.7453 19.8207C26.711 19.6799 25.9499 18.9162 25.6378 18.0608Z" fill="white"/>
<path d="M51.307 13.549C51.3537 15.0056 50.6849 16.6096 49.2442 17.4673C51.878 17.3151 53.8987 15.4699 54.8726 12.0278C51.8207 10.303 49.1252 10.4699 47.1582 12.2808C48.7656 11.8378 50.3398 12.4847 51.307 13.549Z" fill="white"/>
<path d="M49.7349 15.3646C49.2108 15.5883 48.6098 15.3319 48.393 14.7922C48.1758 14.2522 48.4246 13.6335 48.9487 13.4099C49.473 13.1862 50.0737 13.4427 50.2906 13.9825C50.5078 14.5222 50.2589 15.1409 49.7349 15.3646Z" fill="white"/>
<path d="M49.312 8.10559C49.1365 8.54187 49.3376 9.04227 49.7614 9.22293C50.1849 9.40366 50.6705 9.19629 50.8462 8.76009C51.0216 8.32385 50.8203 7.82345 50.3968 7.64279C49.973 7.46203 49.4874 7.66921 49.312 8.10559Z" fill="white"/>
<path d="M51.3193 7.15509C50.476 6.76129 49.367 6.77606 48.5029 7.45819C49.2517 5.85626 50.8408 5.06043 53.1049 5.31594C53.353 7.64795 52.5801 9.28433 51.025 10.0557C51.6873 9.16572 51.7016 8.02352 51.3193 7.15505L51.3193 7.15509Z" fill="white"/>
<path d="M53.8385 17.3038C53.4326 17.477 53.2398 17.9564 53.4079 18.3745C53.5761 18.7923 54.0416 18.9911 54.4473 18.818C54.8535 18.6448 55.0462 18.1653 54.8781 17.7473C54.7099 17.3292 54.2445 17.1306 53.8385 17.3038Z" fill="white"/>
<path d="M55.8239 18.0608C55.5117 17.2055 54.7506 16.4418 53.7163 16.301C55.2774 15.7382 56.8775 16.3077 58.2434 18.0608C56.8775 19.8139 55.2774 20.3835 53.7163 19.8207C54.7506 19.6799 55.5117 18.9162 55.8239 18.0608Z" fill="white"/>
<path d="M46.4307 20.8276C36.1364 13.8281 32.6079 23.2411 25.5503 20.6901C27.547 28.5578 34.154 27.8483 39.1209 25.4117C42.1278 23.9367 44.3669 22.0034 46.4307 20.8276Z" fill="white"/>
<path d="M40.5566 27.5328C36.0991 29.5968 31.4242 30.1808 27.0669 25.3585C28.6775 28.5613 31.3514 31.2189 34.8401 32.7073C42.6941 36.0579 51.6979 32.2167 54.9511 24.1276C55.1849 23.5464 55.3812 22.959 55.544 22.3682C50.8295 20.7107 45.8161 25.0975 40.5566 27.5328V27.5328Z" fill="white"/>
<path d="M46.8909 17.8401C46.808 15.4321 45.3926 13.1781 43.0897 12.1956C39.9446 10.8538 36.339 12.3921 35.0362 15.6314C34.8213 16.1654 34.6844 16.7125 34.6162 17.2595C38.7534 15.1038 43.2129 15.2711 46.8909 17.8401Z" fill="white"/>
<path d="M29.8366 37.1483C29.8366 37.0496 29.881 36.9641 29.97 36.892C30.059 36.8199 30.1664 36.7838 30.2923 36.7838C30.4181 36.7838 30.5255 36.8198 30.6146 36.892C30.7035 36.9641 30.748 37.0496 30.748 37.1483V40.537C30.748 40.6357 30.7035 40.7211 30.6146 40.7933C30.5256 40.8654 30.4181 40.9015 30.2923 40.9015C30.1664 40.9015 30.0591 40.8654 29.97 40.7933C29.881 40.7212 29.8366 40.6357 29.8366 40.537V37.1483ZM27.3758 38.1962H27.8641C28.1158 38.1962 28.3436 38.2256 28.5476 38.2845C28.7516 38.3433 28.9262 38.4278 29.0716 38.5379C29.217 38.648 29.3287 38.7857 29.4069 38.9509C29.485 39.116 29.5241 39.3031 29.5241 39.5118C29.5241 39.6864 29.4947 39.8545 29.4362 40.0159C29.3776 40.1772 29.2832 40.3196 29.153 40.443C29.0229 40.5664 28.8514 40.6651 28.6388 40.7392C28.4261 40.8133 28.1679 40.8502 27.8641 40.8502H26.9722C26.9027 40.8502 26.8376 40.8389 26.7769 40.816C26.7161 40.7933 26.663 40.7638 26.6174 40.7277C26.5718 40.6917 26.5349 40.649 26.5067 40.5996C26.4786 40.5502 26.4644 40.4971 26.4644 40.4402V37.1597C26.4644 37.0572 26.51 36.9689 26.6011 36.8949C26.6923 36.8208 26.7986 36.7838 26.9201 36.7838C27.046 36.7838 27.1533 36.8218 27.2423 36.8977C27.3313 36.9737 27.3758 37.061 27.3758 37.1597V38.1962L27.3758 38.1962ZM27.3758 38.9195V40.1269H27.8641C28.016 40.1269 28.1407 40.1089 28.2383 40.0728C28.336 40.0368 28.4119 39.9902 28.4662 39.9333C28.5205 39.8763 28.5584 39.8118 28.5801 39.7396C28.6018 39.6675 28.6127 39.5934 28.6127 39.5175C28.6127 39.3125 28.5497 39.1615 28.4238 39.0648C28.298 38.968 28.1114 38.9195 27.864 38.9195H27.3758H27.3758Z" fill="white"/>
<path d="M0.899069 47.7553C0.612701 47.5922 0.391284 47.3587 0.23475 47.0545C0.0781493 46.7506 0 46.3946 0 45.9866C0 45.5825 0.0781493 45.2284 0.23475 44.9242C0.391284 44.6205 0.612734 44.3867 0.899069 44.2237C1.18534 44.0605 1.51916 43.979 1.9007 43.979C2.35788 43.979 2.7593 44.1033 3.10488 44.3518C3.1662 44.396 3.20996 44.4442 3.2371 44.496C3.26397 44.548 3.27757 44.6148 3.27757 44.6964C3.27757 44.8113 3.24613 44.9086 3.1833 44.9884C3.12016 45.0681 3.04359 45.1077 2.95382 45.1077C2.89982 45.1077 2.85129 45.0994 2.80803 45.0829C2.76478 45.066 2.71427 45.0394 2.6567 45.0021C2.53053 44.9242 2.41188 44.8687 2.30031 44.8354C2.18875 44.802 2.07359 44.7852 1.9547 44.7852C1.63422 44.7852 1.39594 44.8845 1.23934 45.0829C1.08254 45.2812 1.00439 45.5825 1.00439 45.9866C1.00439 46.3946 1.08254 46.6978 1.23934 46.896C1.39594 47.0944 1.63422 47.1935 1.9547 47.1935C2.06278 47.1935 2.16709 47.1761 2.26791 47.1406C2.36862 47.1054 2.49809 47.0508 2.6567 46.9765C2.7324 46.9359 2.78815 46.9082 2.82412 46.8931C2.86005 46.8783 2.90331 46.8709 2.95382 46.8709C3.04359 46.8709 3.12019 46.9107 3.1833 46.9905C3.24617 47.0702 3.27757 47.1676 3.27757 47.2825C3.27757 47.3604 3.26393 47.4262 3.2371 47.48C3.20993 47.5339 3.1662 47.5828 3.10488 47.6273C2.7593 47.8758 2.35788 47.9998 1.9007 47.9998C1.51916 47.9998 1.18534 47.9185 0.899069 47.7552V47.7553Z" fill="white"/>
<path d="M4.14672 47.8276C4.06756 47.7463 4.02783 47.6293 4.02783 47.4771V44.5015C4.02783 44.3496 4.06756 44.2328 4.14672 44.1516C4.22567 44.0697 4.33922 44.0291 4.48709 44.0291H6.35535C6.5099 44.0291 6.62704 44.0625 6.70647 44.1293C6.78542 44.1961 6.82508 44.2924 6.82508 44.4182C6.82508 44.6851 6.66848 44.8187 6.35535 44.8187H4.9945V45.5639H6.24728C6.56071 45.5639 6.71731 45.6958 6.71731 45.9587C6.71731 46.0851 6.67735 46.1814 6.59839 46.248C6.51894 46.3147 6.4021 46.3482 6.24728 46.3482H4.9945V47.1603H6.35535C6.66848 47.1603 6.82508 47.2935 6.82508 47.5607C6.82508 47.6868 6.78542 47.7831 6.70647 47.8499C6.62704 47.9167 6.5099 47.9501 6.35535 47.9501H4.48709C4.33922 47.9501 4.22567 47.9092 4.14672 47.8276V47.8276Z" fill="white"/>
<path d="M11.2369 44.1403C11.3234 44.2328 11.3666 44.3534 11.3666 44.5017V47.5272C11.3666 47.6683 11.3269 47.7797 11.2477 47.8609C11.1688 47.9427 11.0643 47.9833 10.9345 47.9833C10.8086 47.9833 10.705 47.9427 10.6241 47.8609C10.5432 47.7796 10.5027 47.6683 10.5027 47.5272V45.8922L9.88717 47.06C9.82584 47.1788 9.76099 47.2632 9.69258 47.3132C9.62424 47.3631 9.54334 47.3882 9.44984 47.3882C9.35607 47.3882 9.27487 47.3631 9.20673 47.3132C9.13812 47.2632 9.07357 47.1788 9.01221 47.06L8.4022 45.9256V47.5272C8.4022 47.6644 8.36173 47.7747 8.28049 47.8581C8.19955 47.9417 8.09427 47.9834 7.96457 47.9834C7.83839 47.9834 7.73509 47.9427 7.65415 47.861C7.57318 47.7797 7.53271 47.6683 7.53271 47.5272V44.5018C7.53271 44.3535 7.57647 44.2328 7.66497 44.1404C7.75316 44.0477 7.86553 44.0014 8.00252 44.0014C8.09978 44.0014 8.18776 44.0298 8.26716 44.0876C8.34608 44.1451 8.41298 44.2274 8.46671 44.335L9.46055 46.2592L10.4487 44.335C10.5603 44.1127 10.7113 44.0014 10.9021 44.0014C11.0391 44.0014 11.1505 44.0477 11.2369 44.1404V44.1403Z" fill="white"/>
<path d="M12.4572 47.8276C12.3781 47.7463 12.3384 47.6293 12.3384 47.4771V44.5015C12.3384 44.3496 12.3781 44.2328 12.4572 44.1516C12.5362 44.0697 12.6498 44.0291 12.7976 44.0291H14.6659C14.8204 44.0291 14.9375 44.0625 15.017 44.1293C15.0959 44.1961 15.1356 44.2924 15.1356 44.4182C15.1356 44.6851 14.979 44.8187 14.6659 44.8187H13.305V45.5639H14.5578C14.8712 45.5639 15.0278 45.6958 15.0278 45.9587C15.0278 46.0851 14.9878 46.1814 14.9089 46.248C14.8294 46.3147 14.7126 46.3482 14.5578 46.3482H13.305V47.1603H14.6659C14.979 47.1603 15.1356 47.2935 15.1356 47.5607C15.1356 47.6868 15.0959 47.7831 15.017 47.8499C14.9375 47.9167 14.8204 47.9501 14.6659 47.9501H12.7976C12.6498 47.9501 12.5362 47.9092 12.4572 47.8276V47.8276Z" fill="white"/>
<path d="M16.8392 43.4535C16.632 43.3293 16.4925 43.1688 16.4207 42.9726C16.4026 42.9241 16.3938 42.8741 16.3938 42.8223C16.3938 42.7294 16.4234 42.6544 16.4827 42.5969C16.542 42.5396 16.6114 42.5107 16.6906 42.5107C16.7482 42.5107 16.8023 42.5275 16.8527 42.5609C16.903 42.5943 16.9424 42.6425 16.9714 42.7054C17.0362 42.8428 17.1206 42.9435 17.2252 43.0085C17.3295 43.0732 17.4447 43.1058 17.5708 43.1058C17.7006 43.1058 17.8174 43.0724 17.922 43.0059C18.0263 42.9391 18.111 42.8389 18.1755 42.7053C18.208 42.6424 18.2484 42.5943 18.2972 42.5608C18.3458 42.5274 18.3988 42.5107 18.4566 42.5107C18.5355 42.5107 18.6049 42.5396 18.6645 42.5968C18.7238 42.6543 18.7534 42.7276 18.7534 42.8167V42.8443C18.7534 42.8777 18.7444 42.9187 18.7265 42.9668C18.6617 43.1632 18.5239 43.3245 18.3133 43.4506C18.1027 43.5767 17.8551 43.6398 17.5708 43.6398C17.2901 43.6398 17.046 43.5775 16.8391 43.4534L16.8392 43.4535ZM18.4647 44.0652C18.5492 44.0189 18.6778 43.9959 18.8507 43.9959C18.9983 43.9959 19.1116 44.0355 19.1905 44.1155C19.27 44.1949 19.3095 44.3109 19.3095 44.4626V47.4772C19.3095 47.6295 19.2655 47.7518 19.1773 47.8443C19.089 47.937 18.9712 47.9833 18.8238 47.9833C18.676 47.9833 18.5582 47.938 18.4699 47.8472C18.3817 47.7563 18.3377 47.6331 18.3377 47.4772V45.4862L17.0146 47.5383C16.9281 47.6646 16.85 47.7602 16.7799 47.8249C16.7095 47.8899 16.6373 47.9326 16.5638 47.9527C16.4898 47.9729 16.3991 47.9833 16.291 47.9833C16.1432 47.9833 16.0299 47.9436 15.9509 47.8637C15.8715 47.7842 15.832 47.6682 15.832 47.5161V44.5016C15.832 44.3497 15.8761 44.2273 15.9645 44.1348C16.0524 44.0419 16.1704 43.9958 16.3182 43.9958C16.4657 43.9958 16.5833 44.0411 16.6719 44.1319C16.76 44.2228 16.804 44.3461 16.804 44.5016V46.4872L18.2136 44.3183C18.2963 44.196 18.38 44.1116 18.4647 44.0652H18.4647Z" fill="white"/>
<path d="M23.6374 44.1376C23.7258 44.2285 23.7696 44.3496 23.7696 44.5016V47.4771C23.7696 47.6294 23.7258 47.7518 23.6374 47.8442C23.5491 47.9372 23.4315 47.9833 23.284 47.9833C23.1361 47.9833 23.0183 47.9382 22.9303 47.8471C22.8418 47.7565 22.7978 47.633 22.7978 47.4771V46.365H21.2427V47.4771C21.2427 47.6294 21.1985 47.7518 21.1103 47.8442C21.0221 47.9372 20.9042 47.9833 20.7566 47.9833C20.6088 47.9833 20.491 47.9382 20.403 47.8471C20.3145 47.7565 20.2705 47.633 20.2705 47.4771V44.5016C20.2705 44.3496 20.3145 44.2285 20.403 44.1376C20.4909 44.0465 20.6088 44.0015 20.7566 44.0015C20.9042 44.0015 21.022 44.0465 21.1103 44.1376C21.1985 44.2285 21.2427 44.3496 21.2427 44.5016V45.5529H22.7978V44.5016C22.7978 44.3496 22.8418 44.2285 22.9303 44.1376C23.0183 44.0465 23.1361 44.0015 23.284 44.0015C23.4315 44.0015 23.5491 44.0465 23.6374 44.1376Z" fill="white"/>
<path d="M27.2151 46.9016C27.3772 46.6921 27.4582 46.3871 27.4582 45.9867C27.4582 45.5862 27.3762 45.2823 27.2124 45.0744C27.0485 44.867 26.8243 44.763 26.54 44.763C26.252 44.763 26.027 44.866 25.8651 45.0718C25.703 45.2776 25.6221 45.5826 25.6221 45.9867C25.6221 46.3908 25.703 46.6968 25.8651 46.9044C26.027 47.112 26.2519 47.2158 26.54 47.2158C26.828 47.2158 27.053 47.1113 27.2152 46.9015L27.2151 46.9016ZM25.5276 47.7525C25.2413 47.5876 25.0208 47.3541 24.866 47.0517C24.7112 46.7496 24.6338 46.3947 24.6338 45.9867C24.6338 45.579 24.7111 45.2241 24.866 44.9217C25.0208 44.6196 25.2413 44.3869 25.5276 44.2238C25.8138 44.0604 26.1514 43.9791 26.54 43.9791C26.9289 43.9791 27.2664 44.0604 27.5527 44.2238C27.8385 44.3869 28.0582 44.6196 28.2112 44.9217C28.3643 45.2241 28.4407 45.579 28.4407 45.9867C28.4407 46.3947 28.3633 46.7496 28.2085 47.0517C28.0539 47.3541 27.8332 47.5876 27.5471 47.7525C27.2611 47.9177 26.9253 47.9999 26.54 47.9999C26.1514 47.9999 25.8138 47.9177 25.5275 47.7525H25.5276Z" fill="white"/>
<path d="M33.0141 44.1403C33.1006 44.2328 33.1439 44.3534 33.1439 44.5017V47.5272C33.1439 47.6683 33.1041 47.7797 33.025 47.8609C32.946 47.9427 32.8415 47.9833 32.7119 47.9833C32.5859 47.9833 32.4824 47.9427 32.4014 47.8609C32.3205 47.7796 32.28 47.6683 32.28 47.5272V45.8922L31.6644 47.06C31.6031 47.1788 31.5382 47.2632 31.4699 47.3132C31.4015 47.3631 31.3206 47.3882 31.2271 47.3882C31.1333 47.3882 31.0522 47.3631 30.984 47.3132C30.9154 47.2632 30.8508 47.1788 30.7895 47.06L30.1794 45.9256V47.5272C30.1794 47.6644 30.139 47.7747 30.0578 47.8581C29.9769 47.9417 29.8716 47.9834 29.7418 47.9834C29.6156 47.9834 29.5123 47.9427 29.4315 47.861C29.3505 47.7797 29.3101 47.6683 29.3101 47.5272V44.5018C29.3101 44.3535 29.3537 44.2328 29.4422 44.1404C29.5304 44.0477 29.6428 44.0014 29.7798 44.0014C29.877 44.0014 29.965 44.0298 30.0445 44.0876C30.1233 44.1451 30.1902 44.2274 30.244 44.335L31.2379 46.2592L32.2259 44.335C32.3376 44.1127 32.4886 44.0014 32.6793 44.0014C32.8163 44.0014 32.9277 44.0477 33.0141 44.1404V44.1403Z" fill="white"/>
<path d="M36.6482 44.0653C36.7201 44.0186 36.7975 43.9956 36.8804 43.9956C37.0026 43.9956 37.1107 44.0391 37.2045 44.1264C37.2979 44.2133 37.3447 44.3218 37.3447 44.4515C37.3447 44.537 37.3248 44.6185 37.2851 44.6964L35.822 47.6942C35.775 47.7908 35.7157 47.863 35.6438 47.9108C35.5717 47.959 35.4943 47.9833 35.4115 47.9833C35.2891 47.9833 35.18 47.937 35.0848 47.8443C34.9893 47.7516 34.9418 47.6405 34.9418 47.5107C34.9418 47.4363 34.9596 47.3623 34.9958 47.288L35.2549 46.7596L34.0668 44.7184C34.013 44.6332 33.9858 44.5406 33.9858 44.4404C33.9858 44.3146 34.0309 44.2079 34.1209 44.121C34.2109 44.0337 34.3134 43.9902 34.4287 43.9902C34.5044 43.9902 34.5753 44.0104 34.6421 44.0513C34.7085 44.0922 34.7671 44.1551 34.8176 44.2406L35.7194 45.8085L36.4699 44.274C36.5167 44.181 36.576 44.1117 36.6482 44.0653Z" fill="white"/>
<path d="M42.1858 47.0795C42.2702 47.0148 42.3127 46.9082 42.3127 46.7599C42.3127 46.6115 42.2702 46.5048 42.1858 46.4398C42.1011 46.3751 41.9598 46.3425 41.7618 46.3425H40.9571V47.1769H41.7618C41.9598 47.1769 42.1011 47.1445 42.1858 47.0795ZM40.9571 45.5695H41.6647C41.8517 45.5695 41.9886 45.5401 42.0752 45.4804C42.1614 45.4214 42.2046 45.3267 42.2046 45.197C42.2046 45.0598 42.1614 44.9599 42.0752 44.8965C41.9886 44.8335 41.8517 44.8019 41.6647 44.8019H40.9571V45.5695V45.5695ZM43.058 46.2675C43.1763 46.4326 43.2359 46.6356 43.2359 46.8766C43.2359 47.0917 43.1811 47.2796 43.0713 47.4409C42.9614 47.6024 42.8048 47.7275 42.6015 47.8166C42.3982 47.9054 42.1596 47.9499 41.8862 47.9499H40.4497C40.3018 47.9499 40.1885 47.9093 40.1093 47.8277C40.0302 47.7462 39.9907 47.6294 39.9907 47.4772V44.5017C39.9907 44.3497 40.0302 44.233 40.1093 44.1514C40.1885 44.0698 40.3018 44.0293 40.4497 44.0293H41.8321C42.2318 44.0293 42.5492 44.1209 42.7853 44.3045C43.0207 44.4877 43.1387 44.7352 43.1387 45.0466C43.1387 45.247 43.0867 45.424 42.9824 45.5779C42.8778 45.7319 42.732 45.8442 42.545 45.9144C42.7679 45.9848 42.9391 46.1029 43.058 46.2675L43.058 46.2675Z" fill="white"/>
<path d="M46.4975 46.9016C46.6595 46.6921 46.7405 46.3871 46.7405 45.9867C46.7405 45.5862 46.6586 45.2823 46.4947 45.0744C46.3308 44.867 46.1066 44.763 45.8223 44.763C45.5343 44.763 45.3093 44.866 45.1474 45.0718C44.9854 45.2776 44.9044 45.5826 44.9044 45.9867C44.9044 46.3908 44.9854 46.6968 45.1474 46.9044C45.3093 47.112 45.5342 47.2158 45.8223 47.2158C46.1104 47.2158 46.3353 47.1113 46.4975 46.9015L46.4975 46.9016ZM44.8099 47.7525C44.5236 47.5876 44.3032 47.3541 44.1483 47.0517C43.9935 46.7496 43.916 46.3947 43.916 45.9867C43.916 45.579 43.9935 45.2241 44.1483 44.9217C44.3031 44.6196 44.5236 44.3869 44.8099 44.2238C45.0961 44.0604 45.4337 43.9791 45.8223 43.9791C46.2112 43.9791 46.5487 44.0604 46.835 44.2238C47.1208 44.3869 47.3405 44.6196 47.4935 44.9217C47.6467 45.2241 47.723 45.579 47.723 45.9867C47.723 46.3947 47.6457 46.7496 47.4907 47.0517C47.3362 47.3541 47.1155 47.5876 46.8295 47.7525C46.5434 47.9177 46.2076 47.9999 45.8223 47.9999C45.4337 47.9999 45.0961 47.9177 44.8098 47.7525H44.8099Z" fill="white"/>
<path d="M49.3839 47.7553C49.0977 47.5922 48.8762 47.3587 48.7196 47.0545C48.563 46.7506 48.4849 46.3946 48.4849 45.9866C48.4849 45.5825 48.563 45.2284 48.7196 44.9242C48.8762 44.6205 49.0977 44.3867 49.3839 44.2237C49.6702 44.0605 50.004 43.979 50.3856 43.979C50.8428 43.979 51.2442 44.1033 51.5898 44.3518C51.6512 44.396 51.6949 44.4442 51.722 44.496C51.7489 44.548 51.7624 44.6148 51.7624 44.6964C51.7624 44.8113 51.731 44.9086 51.6682 44.9884C51.6051 45.0681 51.5285 45.1077 51.4388 45.1077C51.3847 45.1077 51.3362 45.0994 51.293 45.0829C51.2497 45.066 51.1992 45.0394 51.1417 45.0021C51.0155 44.9242 50.8968 44.8687 50.7852 44.8354C50.6736 44.802 50.5585 44.7852 50.4396 44.7852C50.1192 44.7852 49.8808 44.8845 49.7243 45.0829C49.5674 45.2812 49.4893 45.5825 49.4893 45.9866C49.4893 46.3946 49.5674 46.6978 49.7243 46.896C49.8808 47.0944 50.1192 47.1935 50.4396 47.1935C50.5477 47.1935 50.6521 47.1761 50.7528 47.1406C50.8536 47.1054 50.9831 47.0508 51.1417 46.9765C51.2173 46.9359 51.2731 46.9082 51.309 46.8931C51.345 46.8783 51.3882 46.8709 51.4388 46.8709C51.5285 46.8709 51.6052 46.9107 51.6682 46.9905C51.731 47.0702 51.7624 47.1676 51.7624 47.2825C51.7624 47.3604 51.7489 47.4262 51.722 47.48C51.6948 47.5339 51.6512 47.5828 51.5898 47.6273C51.2442 47.8758 50.8428 47.9998 50.3856 47.9998C50.004 47.9998 49.6702 47.9185 49.3839 47.7552V47.7553Z" fill="white"/>
<path d="M52.6449 47.8471C52.5565 47.7562 52.5127 47.633 52.5127 47.4771V44.5296C52.5127 44.3813 52.5575 44.2606 52.6477 44.1682C52.7374 44.0755 52.8546 44.0292 52.9986 44.0292H55.4341C55.5779 44.0292 55.6951 44.0755 55.7848 44.1682C55.875 44.2606 55.9198 44.3813 55.9198 44.5296V47.4771C55.9198 47.6294 55.8758 47.7518 55.7875 47.8442C55.6993 47.9371 55.5817 47.9832 55.4341 47.9832C55.2863 47.9832 55.1685 47.9382 55.0802 47.8471C54.992 47.7562 54.9481 47.633 54.9481 47.4771V44.8298H53.4847V47.4771C53.4847 47.6294 53.4404 47.7518 53.3523 47.8442C53.264 47.9371 53.1461 47.9832 52.9986 47.9832C52.8508 47.9832 52.7332 47.9382 52.6449 47.8471Z" fill="white"/>
<path d="M59.5134 44.0653C59.5979 44.0186 59.7269 43.9956 59.8995 43.9956C60.0471 43.9956 60.1604 44.0356 60.2396 44.1153C60.3188 44.195 60.3582 44.3108 60.3582 44.4626V47.4773C60.3582 47.6295 60.3145 47.7517 60.226 47.8444C60.1378 47.937 60.0201 47.9834 59.8726 47.9834C59.7248 47.9834 59.6069 47.9381 59.5187 47.8469C59.4305 47.7564 59.3865 47.6329 59.3865 47.4773V45.486L58.0634 47.5384C57.9772 47.6645 57.8987 47.76 57.8287 47.8247C57.7586 47.8897 57.6862 47.9323 57.6127 47.9528C57.5388 47.973 57.4478 47.9833 57.34 47.9833C57.1922 47.9833 57.0786 47.9435 56.9997 47.8637C56.9205 47.784 56.8809 47.6683 56.8809 47.5161V44.5017C56.8809 44.3497 56.9248 44.2273 57.0133 44.1349C57.1012 44.042 57.2191 43.9956 57.3669 43.9956C57.5145 43.9956 57.6324 44.041 57.7206 44.1321C57.8088 44.2226 57.8531 44.3461 57.8531 44.5017V46.4871L59.2623 44.3185C59.3451 44.196 59.4288 44.1116 59.5134 44.0653H59.5134Z" fill="white"/>
<path d="M62.3161 47.8415C62.2244 47.7506 62.1784 47.6294 62.1784 47.4773V44.8577H61.4171C61.2585 44.8577 61.1406 44.8235 61.0634 44.7546C60.9858 44.6863 60.9473 44.5814 60.9473 44.4404C60.9473 44.2996 60.9858 44.196 61.0634 44.1292C61.1406 44.0624 61.2585 44.029 61.4171 44.029H63.9444C64.1025 44.029 64.2204 44.0624 64.2981 44.1292C64.3752 44.196 64.4142 44.2996 64.4142 44.4404C64.4142 44.5814 64.3752 44.6863 64.2981 44.7546C64.2204 44.8235 64.1025 44.8577 63.9444 44.8577H63.1828V47.4773C63.1828 47.6294 63.1371 47.7506 63.0451 47.8415C62.9533 47.9326 62.8319 47.9777 62.6806 47.9777C62.5296 47.9777 62.4079 47.9326 62.3161 47.8415H62.3161Z" fill="white"/>
<path d="M65.6826 46.3704H66.7627L66.2226 45.1301L65.6826 46.3704ZM68.1989 47.5273C68.1989 47.6495 68.1512 47.7536 68.0557 47.8387C67.9606 47.9241 67.8515 47.9666 67.7291 47.9666C67.6462 47.9666 67.5708 47.9444 67.5024 47.8998C67.4341 47.8553 67.38 47.7888 67.3405 47.6998L67.0975 47.138H65.3478L65.0995 47.6998C65.0596 47.7888 65.005 47.8553 64.9347 47.8998C64.8645 47.9444 64.7878 47.9666 64.7052 47.9666C64.5827 47.9666 64.4721 47.9241 64.3731 47.8387C64.2741 47.7536 64.2246 47.6495 64.2246 47.5273C64.2246 47.4605 64.2409 47.3919 64.2733 47.3216L65.6988 44.3071C65.7455 44.2073 65.8149 44.13 65.9069 44.0765C65.9987 44.0226 66.1002 43.9957 66.2118 43.9957C66.3199 43.9957 66.4207 44.0226 66.5144 44.0765C66.6079 44.13 66.678 44.2073 66.7248 44.3071L68.1502 47.3216C68.1827 47.3919 68.199 47.4605 68.199 47.5273H68.1989Z" fill="white"/>
<path d="M72.2516 44.1376C72.3401 44.2285 72.3839 44.3496 72.3839 44.5016V47.4771C72.3839 47.6294 72.3401 47.7518 72.2516 47.8442C72.1634 47.9372 72.0458 47.9833 71.8982 47.9833C71.7504 47.9833 71.6326 47.9382 71.5446 47.8471C71.4561 47.7565 71.4121 47.633 71.4121 47.4771V46.365H69.857V47.4771C69.857 47.6294 69.8127 47.7518 69.7245 47.8442C69.6363 47.9372 69.5184 47.9833 69.3709 47.9833C69.2231 47.9833 69.1052 47.9382 69.0172 47.8471C68.9288 47.7565 68.8848 47.633 68.8848 47.4771V44.5016C68.8848 44.3496 68.9288 44.2285 69.0172 44.1376C69.1052 44.0465 69.2231 44.0015 69.3709 44.0015C69.5184 44.0015 69.6363 44.0465 69.7245 44.1376C69.8127 44.2285 69.857 44.3496 69.857 44.5016V45.5529H71.4121V44.5016C71.4121 44.3496 71.4561 44.2285 71.5446 44.1376C71.6326 44.0465 71.7504 44.0015 71.8982 44.0015C72.0458 44.0015 72.1634 44.0465 72.2516 44.1376Z" fill="white"/>
<path d="M75.9774 44.0653C76.0618 44.0186 76.1908 43.9956 76.3635 43.9956C76.511 43.9956 76.6243 44.0356 76.7035 44.1153C76.7827 44.195 76.8221 44.3108 76.8221 44.4626V47.4773C76.8221 47.6295 76.7784 47.7517 76.6899 47.8444C76.6017 47.937 76.4841 47.9834 76.3365 47.9834C76.1887 47.9834 76.0708 47.9381 75.9826 47.8469C75.8944 47.7564 75.8504 47.6329 75.8504 47.4773V45.486L74.5273 47.5384C74.4411 47.6645 74.3627 47.76 74.2925 47.8247C74.2224 47.8897 74.1501 47.9323 74.0766 47.9528C74.0028 47.973 73.9118 47.9833 73.8039 47.9833C73.6561 47.9833 73.5425 47.9435 73.4636 47.8637C73.3844 47.784 73.3447 47.6683 73.3447 47.5161V44.5017C73.3447 44.3497 73.3887 44.2273 73.4772 44.1349C73.5651 44.042 73.683 43.9956 73.8309 43.9956C73.9784 43.9956 74.0963 44.041 74.1845 44.1321C74.2727 44.2226 74.3169 44.3461 74.3169 44.5017V46.4871L75.7263 44.3185C75.8089 44.196 75.8927 44.1116 75.9774 44.0653H75.9774Z" fill="white"/>
<path d="M81.7929 46.9044C81.9425 46.6967 82.0172 46.3909 82.0172 45.9866C82.0172 45.5827 81.9415 45.2776 81.7902 45.0718C81.6391 44.8659 81.423 44.7632 81.1422 44.7632C80.8579 44.7632 80.641 44.8651 80.4917 45.0689C80.3424 45.2729 80.2678 45.5789 80.2678 45.9866C80.2678 46.3946 80.3424 46.7013 80.4917 46.9072C80.641 47.113 80.8579 47.2158 81.1422 47.2158C81.4267 47.2158 81.6437 47.1123 81.7929 46.9044ZM79.8842 47.5634C79.5637 47.2724 79.373 46.873 79.3119 46.3648H78.7556V47.4773C78.7556 47.6294 78.7114 47.7516 78.6235 47.8443C78.535 47.937 78.4171 47.9834 78.2695 47.9834C78.122 47.9834 78.0041 47.938 77.9159 47.8472C77.8277 47.7564 77.7837 47.6328 77.7837 47.4773V44.5016C77.7837 44.3498 77.8277 44.2273 77.9159 44.1349C78.0041 44.0419 78.122 43.9958 78.2695 43.9958C78.4171 43.9958 78.535 44.0409 78.6235 44.132C78.7114 44.2229 78.7556 44.3461 78.7556 44.5016V45.5527H79.3171C79.3928 45.0598 79.5889 44.6741 79.9059 44.3963C80.2226 44.118 80.635 43.979 81.1423 43.979C81.5276 43.979 81.8598 44.0605 82.1386 44.2239C82.4176 44.3867 82.631 44.6195 82.7785 44.9216C82.926 45.224 82.9999 45.5789 82.9999 45.9866C82.9999 46.3946 82.926 46.7505 82.7785 47.0545C82.631 47.3586 82.4176 47.5921 82.1386 47.7553C81.8598 47.9186 81.5276 47.9999 81.1423 47.9999C80.6242 47.9999 80.2047 47.8546 79.8842 47.5634H79.8842Z" fill="white"/>
</g>
<defs>
<clipPath id="clip0_170_5744">
<rect width="83" height="48" fill="white"/>
</clipPath>
</defs>
</svg>
