<svg width="103" height="33" viewBox="0 0 103 33" fill="none" xmlns="http://www.w3.org/2000/svg">
<g clip-path="url(#clip0_734_4062)">
<path d="M76.092 20.7609C79.1187 20.7609 81.0835 18.788 81.0835 15.7362C81.0835 14.2411 80.6239 12.9618 79.7367 12.0832C78.8489 11.1892 77.5972 10.7114 76.092 10.7114C73.0338 10.7114 71.0371 12.6844 71.0371 15.7362C71.0528 18.788 73.0338 20.7609 76.092 20.7609ZM76.092 12.7768C77.7081 12.7768 78.5321 13.7787 78.5321 15.7362C78.5321 17.7091 77.7081 18.7109 76.092 18.7109C74.4758 18.7109 73.6518 17.7091 73.6518 15.7362C73.6518 13.7787 74.4758 12.7768 76.092 12.7768Z" fill="#2E35AD"/>
<path d="M89.0051 20.5153H91.4771V10.9591H89.0051V14.6428H84.9332V10.9591H82.4612V20.5153H84.9332V16.5849H89.0051V20.5153Z" fill="#2E35AD"/>
<path d="M24.8806 30.9345C23.7397 30.9345 23.1692 30.3179 23.1692 29.1003V23.197H20.6339V29.501C20.6339 31.5664 21.9966 32.9999 23.9457 32.9999C25.3242 32.9999 26.3225 32.4758 26.9881 31.4122L27.0673 31.2889V32.7378H29.46V23.197H26.9405V28.7149C26.9405 30.0713 26.1482 30.9345 24.8806 30.9345Z" fill="#2E35AD"/>
<path d="M35.2891 23.1807H31.7239V32.7215H33.9739V25.8626L36.1607 32.7215H38.6009L40.8193 25.8318V32.7215H43.0694V23.1807H39.5675L37.4283 30.132L35.2891 23.1807Z" fill="#2E35AD"/>
<path d="M47.2077 26.0485V23.1663H44.7357V26.0793C44.7357 29.0079 46.3995 29.4086 48.1901 29.4086C49.2676 29.4086 50.3609 29.2236 51.1849 28.9154L51.2483 28.9V32.707H53.72V23.1663H51.2483V27.2045L51.2166 27.2199C50.662 27.4665 49.8697 27.6207 49.0457 27.6207C47.4295 27.6207 47.2077 26.8654 47.2077 26.0485Z" fill="#2E35AD"/>
<path d="M60.0877 22.9187C58.63 22.9187 57.4097 23.3811 56.5857 24.2289C55.7779 25.0765 55.3497 26.2942 55.3497 27.7585C55.3497 31.211 56.9977 32.9681 60.2618 32.9681C62.3537 32.9681 63.9542 31.843 64.5565 29.9626H61.9417C61.7514 30.6099 61.0226 31.0415 60.1353 31.0415C58.8517 31.0415 57.9645 30.0859 57.885 28.6216V28.5754H64.6987C64.683 24.8299 63.1302 22.9187 60.0877 22.9187ZM57.9488 27.0495V27.0032C58.0434 25.7239 58.8674 24.8454 60.0083 24.8454C61.0069 24.8454 62.0369 25.5082 62.0845 27.0032V27.0495H57.9488Z" fill="#2E35AD"/>
<path d="M68.5964 23.1826H66.1244V32.7234H68.5964V28.793H72.6683V32.7234H75.1403V23.1826H72.6683V26.8664H68.5964V23.1826Z" fill="#2E35AD"/>
<path d="M82.6195 26.6487L85.868 23.1807H82.7936L79.4663 26.9107V23.1807H76.9148V32.7215H79.4663V29.7005L79.482 29.6851L80.7974 28.3749L82.984 32.7215H85.8204L82.6033 26.6795L82.6195 26.6487Z" fill="#2E35AD"/>
<path d="M94.3778 24.2905C93.4905 23.3965 92.2388 22.9187 90.7336 22.9187C87.6754 22.9187 85.6787 24.8916 85.6787 27.9434C85.6787 30.9953 87.6592 32.9681 90.7336 32.9681C93.7603 32.9681 95.7251 30.9953 95.7251 27.9434C95.7251 26.4483 95.2493 25.1844 94.3778 24.2905ZM90.7336 30.9336C89.1174 30.9336 88.2934 29.9317 88.2934 27.9588C88.2934 26.0014 89.1174 24.9995 90.7336 24.9995C92.3497 24.9995 93.1737 26.0014 93.1737 27.9588C93.1737 29.9317 92.3497 30.9336 90.7336 30.9336Z" fill="#2E35AD"/>
<path d="M96.8513 6.90564H93.5077V8.95562H97.0887C99.3233 8.95562 100.686 10.5432 100.686 12.3003C100.686 12.3157 99.6402 10.7127 97.691 10.7127C94.7594 10.7127 92.8422 12.7935 92.8422 15.7374C92.8422 18.7893 94.8232 20.7621 97.897 20.7621C100.924 20.7621 102.889 18.8972 102.889 15.7682C102.889 15.7682 102.904 15.1517 102.904 14.3811C102.889 7.75337 99.6558 6.90564 96.8513 6.90564ZM97.897 18.7122C96.2809 18.7122 95.4569 17.7103 95.4569 15.7374C95.4569 13.78 96.2809 12.7781 97.897 12.7781C99.5131 12.7781 100.337 13.78 100.337 15.7374C100.321 17.7258 99.5131 18.7122 97.897 18.7122Z" fill="#2E35AD"/>
<path d="M6.03841 13.8257L5.8641 14.4577L8.39941 18.6501C6.37115 24.9541 4.16862 28.9307 1.80762 31.7821C1.60163 31.5818 0.825192 30.6724 0.793497 29.2544C0.761808 27.3894 2.18792 25.6168 2.18792 25.6168C2.18792 25.6168 2.18792 25.6014 2.20376 25.6014H1.31641C1.31641 25.6014 -0.0463216 26.9886 0.00121539 29.2544C0.0487524 31.8284 1.88685 32.784 1.88685 32.784C4.92921 29.948 7.46452 24.0139 8.96984 19.5749L9.99984 21.3011L10.3009 20.2068L9.31847 18.573C9.35015 18.4497 10.5703 14.6118 10.5703 14.6118H14.7377L9.82552 32.7069H10.697L15.6092 14.6272H20.2361L15.3081 32.7224H16.1638L21.0759 14.6272H23.6271L23.8965 13.8257H6.03841ZM8.73215 17.6328L6.90994 14.6272H9.68294L8.73215 17.6328Z" fill="#2E35AD"/>
<path d="M71.6398 6.33485C71.1646 3.56046 69.5166 1.89583 67.0922 1.64922L67.5361 0H66.6645L66.2368 1.61839H62.9089L62.6872 2.40447H66.0146L65.9989 2.45071L62.2433 16.3535C60.3736 16.1839 58.8841 14.7659 58.5515 12.7776C58.0287 9.61788 59.9773 5.45631 64.6202 3.96121L64.3666 3.20596C59.2804 4.83976 57.1571 9.41752 57.7432 12.9009C58.1233 15.1975 59.8508 16.8621 62.0216 17.1241L61.1025 20.4997H61.9741L62.8775 17.1704C62.9884 17.1704 63.0835 17.1858 63.1944 17.1858C65.1906 17.1858 67.1397 16.2918 68.7245 14.6426C70.8953 12.3922 72.0994 8.9705 71.6398 6.33485ZM68.1378 14.1186C67.0922 15.2129 65.3966 16.4459 63.0992 16.3997L66.8705 2.4353C69.7226 2.63567 70.5785 5.02472 70.8158 6.47355C71.2435 8.87805 70.1346 12.0223 68.1378 14.1186Z" fill="#2E35AD"/>
</g>
<defs>
<clipPath id="clip0_734_4062">
<rect width="103" height="33" fill="white"/>
</clipPath>
</defs>
</svg>
